<?xml version="1.0" encoding="utf-8"?>
<!-- Generator: Adobe Illustrator 27.5.0, SVG Export Plug-In . SVG Version: 6.00 Build 0)  -->
<svg version="1.1" xmlns="http://www.w3.org/2000/svg" xmlns:xlink="http://www.w3.org/1999/xlink" x="0px" y="0px"
	 viewBox="0 0 750 500" style="enable-background:new 0 0 750 500;" xml:space="preserve">
<g id="BACKGROUND">
	<rect style="fill:none;" width="750" height="500"/>
</g>
<g id="OBJECTS">
	<g>
			<!-- #D1F4F6 -->
			<ellipse transform="matrix(0.7071 -0.7071 0.7071 0.7071 -51.2807 216.3074)" style="fill:none;" cx="235.466" cy="170.055" rx="120.139" ry="120.139"/>
		<g>
			<g>
				<g>
					<g>
						<path style="fill:#56438C;" d="M234.322,272.206c7.684-3.697,12.639-11.426,15.869-19.317
							c3.894-9.512,5.833-19.809,5.738-30.085l-6.851-0.888l-48.167,13.719l-9.909,3.264c1.553,9.915,5.312,19.639,12.403,26.654
							C211.393,273.456,224.196,277.077,234.322,272.206z"/>
						<path style="fill:#6C6FC3;" d="M255.93,222.803c0.095,10.276-1.845,20.573-5.738,30.085
							c-3.23,7.892-8.185,15.621-15.869,19.317c-10.126,4.871-22.929,1.25-30.917-6.653c-7.091-7.015-10.849-16.739-12.403-26.654
							l-44.506,14.66l15.067,174.534l86.783,12.982l54.702-19.08l8.99-191.92L255.93,222.803z"/>
					</g>
					<g>
						<g>
							<path style="fill:#56438C;" d="M264.867,233.583c-1.878,6.625-3.721,14.384-6.799,22.146
								c-1.538,3.877-3.42,7.726-5.805,11.311c-2.373,3.583-5.227,6.911-8.571,9.613c-3.336,2.708-7.165,4.748-11.242,5.889
								c-4.065,1.168-8.312,1.487-12.358,1.034c-4.047-0.46-7.887-1.729-11.275-3.493c-3.394-1.765-6.323-4.046-8.715-6.524
								c1.974,2.821,4.657,5.543,7.993,7.743c3.327,2.199,7.299,3.899,11.642,4.676c4.336,0.769,8.993,0.642,13.499-0.505
								c4.513-1.111,8.842-3.333,12.491-6.302c3.667-2.964,6.689-6.614,9.093-10.496c2.416-3.884,4.203-8.03,5.531-12.12
								C263.01,248.347,264.044,240.412,264.867,233.583z"/>
						</g>
						<g>
							<path style="fill:#56438C;" d="M196.302,270.203c-1.777-3.52-3.994-8.028-5.727-12.736c-1.76-4.698-3.023-9.56-3.974-13.387
								c-0.299,3.928,0.387,9.168,2.216,14.04C190.611,263.005,193.512,267.423,196.302,270.203z"/>
						</g>
						<g>
							<path style="fill:#56438C;" d="M219.211,298.077c-4.494-2.266-10.035-5.458-14.96-9.495
								c-4.956-3.999-9.21-8.773-12.344-12.711c0.888,2.353,2.261,4.955,4.105,7.482c1.838,2.53,4.142,4.978,6.729,7.086
								c2.591,2.103,5.458,3.86,8.309,5.144C213.899,296.873,216.727,297.687,219.211,298.077z"/>
						</g>
					</g>
					<path style="fill:#56438C;" d="M278.495,257.199l-1.378,4.708c-2.434,8.315-3.996,16.86-4.659,25.498l-6.002,78.123
						l-47.245-7.327l-59.009,54.119l1.362,15.771l86.783,12.982l54.702-19.08l6.098-130.178L278.495,257.199z"/>
				</g>
				<g>
					<path style="fill:#F2C9AD;" d="M199.039,218.241c0.748,9.943,1.495,19.885,2.243,29.828c4.392,4.203,10.656,7.123,16.725,7.465
						c6.069,0.342,12.239-1.547,17.075-5.229c4.302-3.275,7.49-7.857,9.68-12.8c2.189-4.943,3.427-10.256,4.316-15.589
						c-7.779-12.551-14.715-26.063-19.04-40.181C222.861,196.209,211.607,208.088,199.039,218.241z"/>
					<path style="fill:#472948;" d="M218.374,226.395c3.781-3.23,5.872-7.993,7.446-12.71c3.306-9.911,4.844-20.404,4.57-30.848
						c-0.116-0.367-0.238-0.734-0.351-1.102c-7.177,14.475-18.431,26.354-30.999,36.507c0.248,3.304,0.497,6.607,0.745,9.911
						c2.192,1.24,4.664,1.988,7.179,2.119C211.073,230.485,215.246,229.068,218.374,226.395z"/>
				</g>
				<g>
					<path style="fill:#F2C9AD;" d="M225.088,125.286c-7.967-11.315-21.109-19.14-35.168-20.668
						c-14.059-1.528-28.772,3.351-38.726,13.081c-6.611,6.462-11.099,14.929-12.666,23.896
						c-2.853,16.322,3.803,32.699,11.129,47.656c4.714,9.624,9.925,19.304,17.982,26.559s19.556,11.751,30.214,9.101
						c6.587-1.638,12.225-5.794,16.958-10.521c9.174-9.163,15.527-20.889,18.321-33.345c1.273-5.673,1.783-11.069,0.797-16.781
						c-1.027-5.947,0.354-12.038-0.547-18.077C232.272,138.74,229.472,131.513,225.088,125.286z"/>
					<path style="fill:#6A3649;" d="M208.955,152.881c-9.25-0.129-18.5-0.258-27.75-0.386c3.417-3.759,8.399-6.321,13.479-6.351
						C199.764,146.115,205.493,149.163,208.955,152.881z"/>
					<path style="fill:#6A3649;" d="M144.011,166.706c5.491-2.768,10.982-5.537,16.472-8.305c-3.083-2.074-7.128-2.462-10.635-1.236
						C146.341,158.392,143.555,163.018,144.011,166.706z"/>
					<ellipse style="fill:#472948;" cx="194.893" cy="168.888" rx="3.313" ry="4.688"/>
					<path style="fill:#472948;" d="M159.941,174.631c0.902,2.058,0.653,4.156-0.555,4.686c-1.208,0.529-2.919-0.71-3.821-2.768
						c-0.902-2.058-0.653-4.156,0.555-4.686C157.329,171.333,159.04,172.572,159.941,174.631z"/>
					<path style="fill:#EBA58E;" d="M184.829,183.699c-5.798,0.493-11.494,2.147-16.654,4.836c2.644,1.5,6.378,2.06,9.299,1.219
						C180.396,188.913,183.387,186.375,184.829,183.699z"/>
					<path style="fill:#FFFFFF;" d="M203.654,184.895c-9.693,6.178-20.004,11.386-30.729,15.522
						c2.899,5.6,8.645,10.13,14.893,10.981c6.248,0.852,13.021-2.134,16.07-7.654C206.877,198.334,205.322,190.848,203.654,184.895z
						"/>
					<path style="fill:#EBA58E;" d="M205.828,208.381c-2.816,2.759-6.177,4.96-9.833,6.437c2.053,0.911,4.908,0.87,6.803-0.335
						C204.694,213.279,205.781,210.627,205.828,208.381z"/>
					<path style="fill:#EBA7AC;" d="M220.913,173.172c0.628,2.302-2.831,5.251-7.727,6.586c-4.895,1.335-9.373,0.551-10.001-1.752
						c-0.628-2.302,2.832-5.251,7.727-6.586C215.808,170.085,220.285,170.87,220.913,173.172z"/>
					<path style="fill:#EBA7AC;" d="M163.938,189.199c0.19,2.379-2.425,4.529-5.84,4.801c-3.416,0.273-6.339-1.435-6.529-3.814
						c-0.19-2.379,2.425-4.529,5.841-4.801C160.825,185.113,163.748,186.82,163.938,189.199z"/>
					<path style="fill:#EBA58E;" d="M176.502,134.76c8.327-10.5,17.759-16.325,31.358-12.617l5.595,1.201
						c-6.59-6.994-17.81-9.322-27.291-7.756c-9.482,1.565-18.089,6.457-25.941,11.997c-3.99,2.815-7.858,5.827-12.1,8.248
						c-2.883,1.645-5.977,3.003-9.194,3.776c-0.148,0.66-0.286,1.322-0.402,1.987c-0.934,5.344-0.835,10.693-0.041,15.997
						C153.556,155.551,167.343,146.309,176.502,134.76z"/>
					<g>
						<path style="fill:#6A3649;" d="M236.546,173.362c-7.171-5.312-11.232-14.547-10.301-23.423
							c-5.89-1.433-11.967-5.218-15.208-10.341c-3.241-5.123-4.405-11.52-3.177-17.456c-6.21-3.83-15.582-4.092-22.364-1.403
							c-8.605,3.412-14.327,11.415-20.975,17.857c-5.741,5.563-12.579,10.197-20.291,12.299c-7.713,2.102-16.365,1.46-23.135-2.791
							c-6.71-4.213-11.029-11.617-12.614-19.38c-1.585-7.762-0.653-15.862,1.426-23.507c1.035-3.807,2.408-7.638,4.998-10.614
							c5.415-6.223,14.746-7.222,22.926-6.16c8.181,1.062,16.254,3.73,24.482,3.141c6.86-0.491,13.342-3.222,19.592-6.094
							c6.249-2.873,12.506-5.956,19.264-7.234c6.758-1.278,14.24-0.52,19.672,3.699c6.68,5.189,8.838,14.248,9.846,22.647
							c8.513,2.637,15.211,9.973,18.217,18.363c3.006,8.39,2.621,17.746,0.1,26.294C246.483,157.81,241.738,166.118,236.546,173.362
							z"/>
						<path style="fill:#8E5A61;" d="M131.634,141.601c3.912,1.055,6.701-3.725,3.896-6.65c-3.475-3.623-6.333-7.838-8.38-12.422
							c-1.479-3.312-2.532-6.81-3.146-10.384c-0.726-4.226-6.682-4.424-7.809-0.287c-0.44,1.615-0.732,3.266-0.842,4.945
							c-0.468,7.139,1.844,14.576,6.881,19.656C124.604,138.849,127.996,140.62,131.634,141.601z"/>
						<path style="fill:#8E5A61;" d="M142.944,94.446c10.167,2.922,20.735,6.747,31.052,4.406
							c11.71-2.657,20.823-12.856,32.702-14.606c7.611-1.121,15.594,1.818,20.967,7.277c-1.494-3.739-3.642-7.094-6.825-9.566
							c-5.432-4.219-12.914-4.977-19.672-3.699c-6.758,1.278-13.015,4.361-19.264,7.234c-6.249,2.873-12.731,5.603-19.592,6.094
							c-8.228,0.589-16.301-2.078-24.482-3.141c-7.596-0.986-16.179-0.189-21.703,4.912
							C124.397,90.221,134.211,91.936,142.944,94.446z"/>
					</g>
					<g>
						<path style="fill:#F2C9AD;" d="M230.995,164.768c0.554-3.966,2.627-7.87,6.093-9.876c3.466-2.006,8.365-1.651,11.002,1.363
							c2.694,3.078,2.423,7.708,1.609,11.716c-0.577,2.844-1.373,5.7-2.958,8.13c-1.585,2.43-4.07,4.405-6.945,4.791
							C231.463,182.013,230.186,170.569,230.995,164.768z"/>
						<path style="fill:#EBA58E;" d="M245.075,158.213c-2.189-0.599-4.61,0.222-6.277,1.761c-1.668,1.539-2.651,3.705-3.142,5.921
							c-0.491,2.215-0.529,4.503-0.564,6.771c-0.012,0.751-0.022,1.515,0.186,2.236c0.208,0.721,0.671,1.408,1.362,1.701
							c1.186,0.503,2.533-0.3,3.377-1.272c1.416-1.631,2.132-3.85,1.937-6.001c-0.195-2.151-1.299-4.205-2.986-5.554
							C239.72,161.076,242.326,158.751,245.075,158.213z"/>
					</g>
					<g>
						<g>
							<path style="fill:#8E5A61;" d="M234.532,149.246c-0.038-2.277-0.427-4.919-1.259-7.632c-0.826-2.713-2.094-5.49-3.718-8.044
								c-1.629-2.551-3.611-4.873-5.721-6.768c-2.107-1.901-4.337-3.369-6.386-4.365c3.293,3.153,7.201,7.427,10.278,12.298
								C230.842,139.582,233.065,144.93,234.532,149.246z"/>
						</g>
						<g>
							<path style="fill:#8E5A61;" d="M242.204,134.538c-1.479-3.331-4.684-7.194-8.816-9.774c-4.101-2.63-8.964-3.871-12.608-3.782
								c3.489,1.068,7.799,2.77,11.68,5.248C236.362,128.677,239.745,131.843,242.204,134.538z"/>
						</g>
						<g>
							<path style="fill:#8E5A61;" d="M245.147,125.236c-1.701-2.45-4.891-5.052-8.629-6.447c-3.721-1.442-7.833-1.618-10.732-0.917
								c2.975,0.253,6.713,0.891,10.227,2.245C239.538,121.44,242.755,123.448,245.147,125.236z"/>
						</g>
						<g>
							<path style="fill:#8E5A61;" d="M155.285,127.149c2.028,0.163,4.275-0.162,6.492-0.937c2.223-0.768,4.415-1.952,6.525-3.36
								c4.224-2.798,8.125-6.482,12.747-8.713c4.603-2.267,9.836-3.169,14.702-2.889c4.886,0.258,9.371,1.708,12.956,3.616
								c-3.236-2.446-7.731-4.45-12.831-5.044c-5.075-0.622-10.719,0.161-15.667,2.6c-2.493,1.192-4.706,2.808-6.774,4.442
								c-2.069,1.641-4.005,3.327-5.965,4.821C163.591,124.685,159.383,126.865,155.285,127.149z"/>
						</g>
						<g>
							<path style="fill:#8E5A61;" d="M180.311,105.817c2.168-0.443,4.636-0.803,7.258-0.873c2.62-0.076,5.387,0.131,8.097,0.654
								c2.709,0.533,5.351,1.379,7.751,2.433c2.404,1.049,4.557,2.308,6.399,3.533c-1.362-1.736-3.295-3.503-5.672-4.932
								c-2.37-1.435-5.169-2.528-8.076-3.097c-2.909-0.563-5.913-0.601-8.648-0.16C184.68,103.807,182.225,104.72,180.311,105.817z"
								/>
						</g>
						<g>
							<path style="fill:#8E5A61;" d="M195.13,99.323c2.736,0.058,6.159,0.683,9.235,2.197c3.092,1.48,5.701,3.784,7.438,5.898
								c-0.508-1.269-1.359-2.653-2.542-3.902c-1.177-1.252-2.676-2.362-4.328-3.167c-1.654-0.801-3.453-1.292-5.165-1.442
								C198.056,98.75,196.442,98.937,195.13,99.323z"/>
						</g>
						<g>
							<path style="fill:#8E5A61;" d="M209.128,96.086c0.817,1.067,1.837,2.441,2.701,3.916c0.872,1.47,1.579,3.028,2.118,4.26
								c-0.124-1.337-0.66-3.059-1.567-4.584C211.484,98.146,210.238,96.842,209.128,96.086z"/>
						</g>
					</g>
				</g>
			</g>
			<path style="fill:#FFFFFF;" d="M143.54,366.257c0.918-0.485,1.835-0.97,2.753-1.456
				C145.361,365.258,144.444,365.745,143.54,366.257z"/>
			<g>
				<g>
					<path style="fill:#F2C9AD;" d="M277.455,335.343l-2.5,37.75l-21.408-5.719l-23.117-6.175
						c-9.776,2.1-23.151,7.389-31.225,11.644c-1.265,0.62-2.573,1.421-3.898,2.374l50.739,24.219l27.06,12.916
						c8.619,4.114,18.618,4.202,27.308,0.239h0c10.804-4.927,18.033-15.385,18.823-27.233l2.968-44.515L277.455,335.343z"/>
					<polygon style="fill:#472948;" points="277.455,335.343 322.205,340.843 321.254,355.113 277.166,339.708 					"/>
					<path style="fill:#EBA58E;" d="M274.955,373.093l18.67,4.987c-5.337-13.32-13.96-12.156-18.46-8.156L274.955,373.093z"/>
				</g>
				<path style="fill:#6C6FC3;" d="M329.234,341.707l-53.963-6.632l3.224-77.875c0.716-17.305,16.471-30.045,33.544-27.124l0,0
					c14.669,2.51,24.992,15.808,23.785,30.642L329.234,341.707z"/>
				<g>
					<path style="fill:#56438C;" d="M324.96,328.894c-11.854-3.483-31.475-5.981-43.823-5.579
						C292.99,326.798,312.611,329.296,324.96,328.894z"/>
				</g>
				<g>
					<path style="fill:#56438C;" d="M280.889,275.486c1.118-6.684,2.023-15.365,4.669-23.445c1.317-4.025,3.087-7.89,5.212-11.278
						c2.115-3.397,4.605-6.285,7.099-8.586c-3.086,1.398-6.347,3.857-9.058,7.168c-2.727,3.297-4.91,7.38-6.318,11.696
						c-1.406,4.314-2.077,8.804-2.248,12.993C280.072,268.229,280.374,272.137,280.889,275.486z"/>
				</g>
			</g>
			<path style="fill:#8C404C;" d="M198.268,375.787c10.857-13.773,21.714-27.545,32.571-41.318c2.111-2.678,4.351-5.962,3.353-9.223
				c-1.01-3.301-5.105-4.826-8.484-4.117c-3.378,0.709-6.154,3.046-8.693,5.384c-10.212,9.399-19.184,20.143-26.613,31.866
				C193.011,363.449,195.659,370.717,198.268,375.787z"/>
			<g>
				<path style="fill:#BD6C67;" d="M343.348,387.266c2.694-3.368,4.948-7.089,6.651-11.052c-1.274,0.852-2.548,1.704-3.823,2.556
					c5.544-19.456,5.322-40.643-1.869-59.452c-1.659,22.688-9.689,44.876-22.933,63.372c-13.245,18.495-31.664,33.243-52.609,42.121
					c-2.646,1.121-5.345,2.141-8.081,3.061c0.123-1.836,0.246-3.673,0.368-5.509c-1.784,2.587-3.809,5.005-6.026,7.232
					c-11.597,3.176-23.722,4.273-35.492,2.081c-2.68,1.982-6.505,4.436-9.184,6.418c22.696,11.769,50.213,13.864,74.429,5.667
					c1.647-0.557,3.275-1.166,4.886-1.816c8.534-0.26,16.997-3.077,23.9-8.111c-2.216,0.011-4.432,0.023-6.648,0.034
					c6.025-1.717,11.772-4.411,16.902-8.007c-2.779,0.165-5.557,0.329-8.335,0.494c7.598-6.399,14.221-13.956,19.516-22.353
					c4.017-2.812,7.529-6.345,10.266-10.413c-1.802,0.566-3.603,1.131-5.405,1.697c0.201-0.412,0.406-0.822,0.602-1.237
					C341.506,391.828,342.468,389.564,343.348,387.266z"/>
				<path style="fill:#A64F5A;" d="M350.041,352.464c-4.816,23.067-16.455,45.369-32.583,61.803c1.555-0.022,3.33-0.439,4.885-0.461
					c-2.808,3.263-7.229,5.157-11.521,5.495c-7.065,6.796-15.688,12.903-24.886,16.293c2.171,0.239,4.683,0.597,6.854,0.836
					c-4.984,2.786-10.803,4.62-16.509,4.842c1.448,0.771,2.867,1.639,4.315,2.41c-4.153,1.322-9.164,0.885-12.991-1.201
					c-13.386,1.906-29.33,0.842-42.524-2.11c3.029-2.206,5.805-4.755,8.284-7.565c-4.629,0.07-9.257-0.279-13.831-1.131
					c-2.68,1.982-6.505,4.436-9.184,6.418c22.696,11.769,50.213,13.864,74.429,5.667c1.647-0.557,3.275-1.166,4.886-1.816
					c8.534-0.26,16.997-3.077,23.9-8.111c-2.216,0.011-4.432,0.023-6.648,0.034c6.025-1.717,11.772-4.411,16.902-8.007
					c-2.779,0.165-5.557,0.329-8.335,0.494c7.598-6.399,14.221-13.956,19.516-22.353c4.017-2.812,7.529-6.345,10.266-10.413
					c-1.802,0.566-3.603,1.131-5.405,1.697c0.201-0.412,0.406-0.822,0.602-1.237c1.045-2.221,2.006-4.485,2.887-6.783
					c2.694-3.368,4.948-7.089,6.651-11.052c-1.274,0.852-2.548,1.704-3.823,2.556C348.613,370.219,349.934,361.335,350.041,352.464z
					"/>
			</g>
			<g>
				<path style="fill:#472948;" d="M185.216,224.835c3.441,2.759,6.991,5.651,8.92,9.617c2.706,5.565,1.48,12.789-2.91,17.149
					c-5.934,5.895-16.177,5.663-23.159,1.056c-6.981-4.607-11.076-12.6-13.123-20.71c-0.977-3.87-3.877-31.023,2.039-29.711
					c2.164,0.48,5.363,4.263,7.083,5.641c2.243,1.798,4.486,3.597,6.729,5.395C175.602,217.128,180.409,220.982,185.216,224.835z"/>
				<g>
					<path style="fill:#F0BF6C;" d="M267.606,309.752c-4.754-0.005-8.245,4.302-10.884,8.256c-0.953,1.427-1.886,2.868-2.814,4.311
						c6.653,1.598,12.949,4.684,18.267,8.99c1.504-2.133,2.78-4.379,3.534-6.886C277.579,318.206,274.099,309.759,267.606,309.752z"
						/>
					<g>
						<path style="fill:#DF8D6D;" d="M267.223,323.095c0.77-1.564,1.672-3.326,2.804-4.952c1.122-1.633,2.452-3.099,3.643-4.371
							c-1.733,0.162-3.85,1.418-5.148,3.331C267.19,318.992,266.762,321.416,267.223,323.095z"/>
					</g>
					<g>
						<path style="fill:#DF8D6D;" d="M261.296,319.224c0.719-1.579,1.613-3.32,2.774-4.895c1.153-1.581,2.544-2.957,3.834-4.118
							c-1.735,0.008-3.951,1.156-5.302,3.041C261.21,315.109,260.782,317.568,261.296,319.224z"/>
					</g>
					<path style="fill:#DF8D6D;" d="M233.121,360.68c-9.864,1.593-25.076,7.504-33.916,12.163
						c-5.25-15.5-10.613-29.048-16.997-42.649c-8.758-18.66-20.515-35.907-34.684-50.878c3.836,0.286,7.735,0.718,11.571,1.004
						c3.685,0.275,7.41,0.548,11.061-0.029s7.274-2.094,9.71-4.873c2.436-2.779,3.448-6.959,1.884-10.307
						c-2.368,3.849-6.692,7.453-10.984,8.865c-4.293,1.412-8.889,1.655-13.403,1.44c-7.937-0.378-15.956-2.209-22.67-6.458
						c-6.715-4.249-11.998-11.126-13.192-18.982c-1.194-7.856,3.398-16.252,10.267-20.246c-3.344,4.859-3.512,11.703-0.411,16.72
						c3.101,5.017,9.298,7.927,15.139,7.108c5.841-0.819,11-5.32,12.602-10.996c2.643,2.633,6.507,4.284,10.416,4.667
						c3.33,0.326,6.691-0.266,9.36-1.992c5.801-3.752,8.431-11.746,5.992-18.21c-1.997-5.292-6.68-8.995-10.817-12.853
						c-7.573-7.063-13.887-15.473-18.556-24.716c-4.51-8.928-7.895-19.13-16.013-24.973c-7.326-5.274-17.429-5.776-25.862-2.557
						c-8.433,3.219-15.29,9.763-20.271,17.291c-4.981,7.528-8.249,16.045-11.173,24.585c-5.625,16.433-10.122,33.252-13.449,50.3
						c-5.489,28.132-5.762,51.87-2.168,80.306c3.593,28.436,13.681,56.557,32.158,78.468c18.477,21.911,45.907,37.014,74.568,37.203
						c28.661,0.19,57.706-16.033,69.527-42.144c9.823-21.698,7.893-48.343,22.1-67.46c2.311-3.11,5.04-6.014,7.265-9.169
						c-5.318-4.306-11.614-7.392-18.267-8.99C246.041,334.567,239.081,347.398,233.121,360.68z"/>
				</g>
				<path style="fill:#984058;" d="M146.497,253.559c-5.841,0.819-12.038-2.091-15.139-7.108c-3.101-5.017-2.933-11.861,0.411-16.72
					c-6.869,3.994-11.461,12.39-10.267,20.246c1.194,7.856,6.477,14.733,13.192,18.982c6.715,4.249,14.733,6.079,22.67,6.458
					c4.514,0.215,9.111-0.028,13.403-1.44c4.293-1.412,8.617-5.016,10.984-8.865c-2.057-5.356-4.593-3.728-12.236-17.881
					c-3.908-0.383-7.772-2.034-10.416-4.667C157.496,248.239,152.338,252.74,146.497,253.559z"/>
				<path style="fill:#472948;" d="M130.226,197.943c0.986,4.048,0.181,7.72-1.798,8.202c-1.979,0.482-4.382-2.409-5.368-6.457
					c-0.986-4.048-0.181-7.72,1.798-8.202C126.837,191.004,129.24,193.895,130.226,197.943z"/>
				<path style="fill:#472948;" d="M153.046,194.212c0.87,3.571,0.351,6.763-1.158,7.131c-1.509,0.367-3.437-2.229-4.307-5.8
					c-0.87-3.571-0.351-6.763,1.158-7.131C150.248,188.045,152.176,190.642,153.046,194.212z"/>
				<g>
					<path style="fill:#A64F5A;" d="M103.795,382.227c5.844-10.731,8.238-23.174,7.692-35.381
						c-0.654-14.618-5.769-29.459-16.272-39.647c-8.154-7.909-19.827-12.476-30.998-11.582c-0.211,12.52,0.611,25.113,2.34,38.795
						c2.904,22.982,10.056,45.755,22.445,65.213C95.07,394.97,100.132,388.955,103.795,382.227z"/>
					<path style="fill:#A64F5A;" d="M175.455,425.093c-7.5-19.75,10.5-45.75,23.75-52.25c-0.914-2.699-1.835-5.322-2.761-7.913
						C185.342,368.122,157.501,393.201,175.455,425.093z"/>
					<path style="fill:#A64F5A;" d="M234.53,390.764c-6.6,0.532-13.259,2.539-18.322,6.806c-7.087,5.972-10.169,15.721-9.874,24.984
						c0.203,6.354,1.81,12.539,4.034,18.521c14.095-7.288,25.905-18.696,32.443-33.136c2.42-5.346,4.125-10.992,5.536-16.752
						C243.747,390.692,239.133,390.393,234.53,390.764z"/>
					<path style="fill:#A64F5A;" d="M142.221,377.593c-6.189-1.734-13.09,3.748-16.162,8.656c-3.21,5.13-4.232,11.388-3.956,17.434
						c0.209,4.579,1.218,9.329,4.146,12.856c4.205,5.064,11.726,6.513,18.06,4.721c6.413-1.815,11.892-6.671,14.465-12.818
						c2.573-6.148,2.184-13.459-1.025-19.3C154.513,383.249,148.607,379.381,142.221,377.593z"/>
					<path style="fill:#A64F5A;" d="M220.841,380.143c0.307,1.988,1.861,3.792,3.839,4.158c2.282,0.422,4.487-0.996,6.203-2.559
						c1.268-1.155,2.452-2.465,3.098-4.054c1.64-4.035-1.666-8.124-5.836-6.551C224.604,372.473,220.188,375.917,220.841,380.143z"
						/>
				</g>
				<circle style="fill:#DF8D6D;" cx="146.685" cy="233.906" r="1.729"/>
				<path style="fill:#DF8D6D;" d="M140.372,240.26c0,1.059-0.858,1.917-1.917,1.917c-1.059,0-1.917-0.858-1.917-1.917
					c0-1.059,0.858-1.917,1.917-1.917C139.514,238.343,140.372,239.201,140.372,240.26z"/>
				<path style="fill:#DF8D6D;" d="M147.289,243.76c0,0.874-0.709,1.583-1.583,1.583c-0.874,0-1.583-0.709-1.583-1.583
					c0-0.875,0.709-1.583,1.583-1.583C146.58,242.176,147.289,242.885,147.289,243.76z"/>
				<path style="fill:#DF8D6D;" d="M173.587,229.902c0,0.796-0.645,1.441-1.441,1.441s-1.441-0.645-1.441-1.441
					s0.645-1.441,1.441-1.441S173.587,229.107,173.587,229.902z"/>
				<path style="fill:#DF8D6D;" d="M178.122,236.593c0,1.151-0.933,2.083-2.083,2.083s-2.083-0.933-2.083-2.083
					s0.933-2.083,2.083-2.083S178.122,235.442,178.122,236.593z"/>
				<path style="fill:#DF8D6D;" d="M181.751,229.157c0,0.772-0.626,1.398-1.398,1.398c-0.772,0-1.398-0.626-1.398-1.398
					s0.626-1.398,1.398-1.398C181.125,227.76,181.751,228.385,181.751,229.157z"/>
				<g>
					<path style="fill:#472948;" d="M157.789,231.343c0.75,5.167,0.457,11.908-1.146,16.121c1.108-1.468,1.956-3.127,2.457-4.901
						c1.336,1.331,2.986,2.409,4.794,3.201C158.836,241.604,159.455,236.759,157.789,231.343z"/>
				</g>
				<path style="fill:#A64F5A;" d="M160.222,338.503c6.57,0.552,13.035,1.965,19.574,2.803c2.536,0.325,5.102,0.556,7.664,0.621
					c-1.683-3.936-3.422-7.835-5.251-11.733c-1.418-3.021-2.923-6.001-4.496-8.945c-13.422,3.375-26.121,9.757-37.109,18.178
					C147.066,338.265,153.68,337.953,160.222,338.503z"/>
				<g>
					<path style="fill:#DF8D6D;" d="M220.603,286.247c-2.381,1.734-4.587,3.762-6.653,5.848c-4.517,4.562-8.691,9.572-14.031,13.135
						c-5.341,3.563-12.261,5.514-18.247,3.193c-5.493-2.13-9.081-7.294-13.195-11.511c-3.968-4.066-8.705-7.36-13.853-9.755
						c-8.059-3.75-18.965-6.224-27.834-4.155c-8.385,1.956-10.667,14.8-10.197,21.925c0.518,7.854,3.577,15.299,6.851,22.457
						c2.224,4.862,5.074,10.133,10.158,11.79c5.74,1.871,11.658-1.627,17.408-3.471c16.031-5.14,34.561,2.574,49.89-4.387
						c6.898-3.133,12.206-8.874,17.314-14.469c6.05-6.626,12.101-13.252,18.151-19.878
						C232.889,291.445,227.019,287.443,220.603,286.247z"/>
					<path style="fill:#F0BF6C;" d="M241.73,287.318c-0.274-2.459-2.23-4.515-4.539-5.404c-2.309-0.889-4.901-0.759-7.306-0.181
						c-3.387,0.815-6.458,2.457-9.282,4.513c6.416,1.196,12.286,5.198,15.76,10.723c0.44-0.482,0.88-0.964,1.32-1.446
						C239.808,293.198,242.079,290.449,241.73,287.318z"/>
					<g>
						<path style="fill:#DF8D6D;" d="M230.701,287.839c1.314-0.744,2.832-1.516,4.454-2.036c1.619-0.53,3.301-0.795,4.801-0.963
							c-1.231-0.873-3.377-1.186-5.29-0.545C232.741,284.898,231.186,286.41,230.701,287.839z"/>
					</g>
					<g>
						<path style="fill:#DF8D6D;" d="M226.695,285.836c1.003-0.695,2.129-1.537,3.324-2.28c1.191-0.749,2.441-1.393,3.505-1.99
							c-1.191-0.255-2.837,0.049-4.184,0.904C227.981,283.306,226.987,284.654,226.695,285.836z"/>
					</g>
				</g>
				<path style="fill:#A64F5A;" d="M89.819,257.468c7.365-12.296,10.589-26.592,12.985-40.723
					c2.019-11.909,3.396-24.762-2.063-35.537c-2.043-1.327-4.215-2.452-6.47-3.339c-0.315,0.447-0.623,0.897-0.924,1.352
					c-4.981,7.528-8.249,16.045-11.173,24.585c-5.625,16.433-10.122,33.252-13.449,50.3c-1.705,8.74-2.906,17.056-3.645,25.22
					C75.382,275.338,84.07,267.067,89.819,257.468z"/>
				<g>
					<path style="fill:#59385B;" d="M103.44,189.569c-1.082,21.704-7.803,43.103-19.327,61.527
						c-3.125,4.997-6.721,9.898-11.694,13.061c-5.992,3.81-13.755,4.691-20.448,2.319c-6.693-2.372-12.17-7.944-14.426-14.677
						c-1.804-5.385-1.333-11.957,2.737-15.918c2.567-2.498,6.129-3.609,9.448-4.955c14.731-5.978,26.758-18.306,32.37-33.18
						c1.481-3.926,2.539-8.021,4.366-11.798c1.763-3.645,6.402-10.833,11.304-10.003C103.466,176.91,103.653,185.292,103.44,189.569
						z"/>
					<path style="fill:#472948;" d="M97.771,175.945c-0.054-0.009-0.108-0.004-0.162-0.012c0.756,0.984,1.342,2.117,1.704,3.297
						c0.853,2.779,0.713,5.756,0.451,8.651c-1.648,18.238-7.883,36.044-17.971,51.327c-2.636,3.993-5.564,7.853-9.235,10.921
						c-3.672,3.068-8.157,5.318-12.926,5.702c-6.863,0.552-13.895-3.105-17.383-9.042c-1.836-3.125-2.633-6.799-2.427-10.414
						c-3.634,3.997-4.008,10.254-2.276,15.424c2.256,6.733,7.733,12.305,14.426,14.677c6.693,2.372,14.456,1.491,20.448-2.319
						c4.973-3.163,8.569-8.064,11.694-13.061c11.524-18.424,18.245-39.823,19.327-61.527
						C103.653,185.292,103.466,176.91,97.771,175.945z"/>
				</g>
				<path style="fill:#A64F5A;" d="M110.658,170.573c3.18,1.48,6.84,1.346,10.345,1.243c3.506-0.102,7.197-0.099,10.265,1.601
					c2.666,1.477,4.565,4.087,7.237,5.554c2.929,1.608,6.672,1.626,9.617,0.047c0.634-0.34,1.217-0.764,1.76-1.235
					c-2.648-5.157-5.745-9.944-10.401-13.296c-7.326-5.274-17.429-5.776-25.862-2.557c-2.619,1-5.085,2.321-7.391,3.891
					C106.947,167.849,108.661,169.644,110.658,170.573z"/>
				<g>
					<path style="fill:#472948;" d="M151.522,223.565c-1.389-0.465-2.932-0.266-4.3,0.258c-0.702,0.269-1.366,0.619-2.01,1.006
						c3.351,1.637,6.96,2.832,10.593,3.435c-0.316-0.723-0.666-1.428-1.105-2.082C153.923,225.02,152.847,224.009,151.522,223.565z"
						/>
					<path style="fill:#472948;" d="M168.841,221.14c-1.689-0.385-3.55-0.06-4.941,0.983c-1.63,1.222-2.497,3.339-2.312,5.358
						C164.288,226.176,166.729,223.73,168.841,221.14z"/>
					<path style="fill:#59385B;" d="M163.9,222.122c1.391-1.043,3.252-1.368,4.941-0.983c0.321-0.394,0.637-0.789,0.943-1.185
						c0.967-1.254,0.185-3.109-1.395-3.224c-8.055-0.588-16.256,0.878-23.611,4.215c-1.542,0.7-1.601,2.865-0.09,3.63
						c0.173,0.088,0.35,0.168,0.525,0.253c0.645-0.387,1.309-0.738,2.01-1.006c1.368-0.524,2.911-0.723,4.3-0.258
						c1.325,0.444,2.401,1.456,3.178,2.617c0.438,0.655,0.789,1.36,1.105,2.082c0.23,0.038,0.459,0.082,0.689,0.116
						c1.781,0.258,3.482-0.121,5.094-0.9C161.403,225.461,162.27,223.345,163.9,222.122z"/>
				</g>
				<g>
					<path style="fill:#CC6164;" d="M164.785,275.231c-0.564-2.958-1.582-5.798-3.186-8.362c-2.937-4.692-7.736-8.183-13.105-9.531
						c-5.369-1.348-11.248-0.539-16.053,2.21c-1.696,0.97-3.292,2.218-4.3,3.887c1.919,2.128,4.141,3.997,6.553,5.523
						c1.54,0.975,3.156,1.808,4.817,2.54c0,0,0,0,0,0l-0.007,0.012c0.178,5.162,4.135,9.459,4.27,14.622
						c0.071,2.694-0.199,5.402,0.115,8.079s1.308,5.417,3.407,7.107c2.261,1.82,5.531,2.104,8.251,1.093
						c2.72-1.011,4.906-3.178,6.362-5.688c1.455-2.511,2.237-5.357,2.755-8.212C165.454,284.15,165.611,279.563,164.785,275.231z"/>
					<g>
						<path style="fill:#A34262;" d="M155.412,289.909c1.145-1.936,2.104-4.429,2.568-7.219c0.474-2.785,0.455-5.85-0.107-8.818
							c-0.568-2.967-1.677-5.824-3.141-8.241c-1.457-2.424-3.265-4.39-5.041-5.77c1.257,1.872,2.547,4.062,3.616,6.511
							c1.074,2.444,1.931,5.138,2.462,7.9c0.521,2.763,0.714,5.584,0.613,8.252C156.288,285.195,155.893,287.706,155.412,289.909z"
							/>
					</g>
				</g>
			</g>
			<g>
				<path style="fill:#F2C9AD;" d="M66.431,327.342c-0.078,3.185-0.208,6.96,0.529,10.06c-6.601-3.938-13.204-12.525-14.247-20.14
					c-1.042-7.615,0.856-15.443,4.391-22.268c3.535-6.825,8.639-12.726,14.201-18.031c7.134-6.805,15.1-12.737,23.664-17.623
					c1.886-1.076,4.522-2.006,5.993-0.409c0.904,0.982,0.859,2.562,0.254,3.751c-0.605,1.189-1.658,2.078-2.683,2.932
					c-5.393,4.496-10.786,8.992-16.179,13.488c6.66-3.842,13.862-6.985,20.941-9.985c1.176-0.499,2.394-0.993,3.671-1.011
					c1.278-0.018,2.645,0.547,3.219,1.689c0.525,1.045,0.273,2.346-0.347,3.337c-0.62,0.991-1.557,1.736-2.481,2.452
					c-7.292,5.647-14.974,10.79-22.974,15.379c6.468-3.452,13.373-5.956,20.353-8.201c2.012-0.647,4.535-1.123,5.973,0.427
					c1.072,1.156,0.996,3.04,0.233,4.42s-2.068,2.366-3.355,3.276c-6.751,4.775-14.115,8.683-21.853,11.597
					c4.1-1.344,8.382-2.203,12.482-3.547c1.311-0.43,2.661-0.865,4.038-0.78c1.377,0.085,2.806,0.814,3.309,2.098
					c0.535,1.366-0.133,2.968-1.22,3.954c-1.087,0.986-2.515,1.49-3.901,1.971c-6.759,2.343-13.518,4.687-20.277,7.03
					C76.705,321.843,66.431,327.342,66.431,327.342z"/>
				<path style="fill:#EBA58E;" d="M104.992,302.289c-1.727,1.517-3.955,2.314-6.141,3.023c-6.501,2.108-13.525,4.035-20.267,5.154
					c-1.05,2.328-2.284,4.607-4.005,6.493c-1.721,1.887-3.975,3.368-6.492,3.798c-3.584,0.612-7.322-1.025-9.785-3.699
					c-2.463-2.674-3.765-6.256-4.257-9.858c-0.171-1.251-0.247-2.509-0.266-3.77c-1.243,4.508-1.699,9.208-1.066,13.831
					c1.042,7.615,7.646,16.203,14.247,20.14c-0.737-3.099-0.607-6.875-0.529-10.06c0,0,10.275-5.499,13.733-14.133
					c6.759-2.343,13.518-4.687,20.278-7.03c1.386-0.481,2.814-0.985,3.901-1.971c0.759-0.688,1.303-1.677,1.386-2.675
					C105.497,301.801,105.255,302.058,104.992,302.289z"/>
			</g>
			<path style="fill:#F2C9AD;" d="M191.085,350.689C191.085,350.689,191.085,350.689,191.085,350.689
				c-19.942-4.251-41.84,0.115-58.584,11.75c-3.46,2.404-6.791,5.185-8.701,8.989c-0.447,0.89-0.466,1.983,0.114,2.792
				c1.101,1.535,3.05,0.799,4.508,0.029c5.039-2.664,10.079-5.328,15.118-7.992c-6.222,3.524-11.783,8.274-16.949,13.216
				c-1.417,1.355-2.838,2.847-3.016,4.922c-0.084,0.969,0.218,1.974,0.919,2.647c1.734,1.665,4.236,0.505,6.133-0.652
				c7.834-4.776,15.669-9.551,23.503-14.327c-5.419,4.72-10.637,10.018-16.056,14.739c-0.894,0.779-1.803,1.575-2.413,2.592
				c-0.61,1.017-0.883,2.309-0.42,3.4c0.626,1.477,2.431,2.162,4.025,1.983c1.594-0.179,3.023-1.031,4.38-1.887
				c6.441-4.061,12.546-8.655,18.232-13.721c-3.563,3.931-6.403,8.859-9.137,13.406c-0.543,0.903-1.081,1.853-1.187,2.902
				c-0.105,1.049,0.337,2.226,1.298,2.661c1.307,0.592,2.757-0.387,3.825-1.345c4.682-4.203,8.702-9.143,11.865-14.582
				c2.689,0.03,5.392-0.122,8.062-0.473c6.548-0.86,12.891-2.947,18.307-6.712l0.398,0.19c1.325-0.953,2.633-1.754,3.898-2.374
				c8.073-4.255,21.449-9.543,31.225-11.644L191.085,350.689z"/>
		</g>
		<g>
			<g>
				<path style="fill:#797C99;" d="M353.084,273.562c-0.335-0.049,0.062-3.423-0.014-8.847c-0.016-0.678-0.033-1.387-0.05-2.127
					c-0.02-0.739-0.103-1.506-0.152-2.299c-0.074-1.591-0.314-3.276-0.52-5.05c-0.521-3.536-1.303-7.391-2.469-11.346
					c-1.206-3.943-2.678-7.59-4.192-10.828c-0.806-1.595-1.534-3.133-2.349-4.501c-0.397-0.689-0.75-1.375-1.141-2.002
					c-0.393-0.626-0.77-1.228-1.13-1.802c-2.926-4.568-5.117-7.165-4.864-7.39c0.162-0.158,2.757,2.111,6.062,6.571
					c0.404,0.564,0.827,1.154,1.267,1.77c0.435,0.62,0.831,1.301,1.271,1.988c0.899,1.365,1.705,2.912,2.579,4.528
					c1.65,3.28,3.221,7.017,4.463,11.076c1.202,4.072,1.95,8.055,2.38,11.702c0.161,1.83,0.341,3.566,0.343,5.2
					c0.013,0.816,0.057,1.602,0.036,2.359c-0.029,0.756-0.056,1.482-0.082,2.175C354.221,270.281,353.307,273.604,353.084,273.562z"
					/>
			</g>
			<g>
				<path style="fill:#797C99;" d="M357.893,248.605c-0.284,0.062-1.441-5.949-4.465-12.794c-2.976-6.866-6.607-11.794-6.368-11.961
					c0.092-0.069,1.118,1.075,2.528,3.116c1.411,2.037,3.162,5.003,4.685,8.476c1.517,3.476,2.507,6.774,3.047,9.193
					C357.862,247.055,358.006,248.585,357.893,248.605z"/>
			</g>
			<g>
				<path style="fill:#797C99;" d="M79.546,418.995c-0.21,0.198-3.288-2.549-7.408-7.775c-0.506-0.66-1.036-1.351-1.589-2.071
					c-0.547-0.725-1.064-1.515-1.626-2.316c-1.142-1.591-2.22-3.383-3.377-5.257c-2.225-3.799-4.444-8.116-6.394-12.814
					c-1.914-4.714-3.368-9.344-4.455-13.61c-0.494-2.146-0.986-4.179-1.291-6.113c-0.163-0.965-0.351-1.89-0.47-2.79
					c-0.113-0.9-0.221-1.765-0.325-2.59c-0.74-6.613-0.48-10.731-0.192-10.737c0.392-0.019,0.751,4.046,1.917,10.479
					c0.151,0.803,0.31,1.644,0.475,2.52c0.166,0.875,0.397,1.775,0.6,2.712c0.385,1.88,0.942,3.854,1.484,5.94
					c1.184,4.145,2.669,8.646,4.539,13.253c1.907,4.592,4.012,8.838,6.083,12.619c1.079,1.865,2.07,3.661,3.117,5.269
					c0.514,0.81,0.982,1.612,1.479,2.352c0.498,0.739,0.976,1.449,1.433,2.127C77.237,415.589,79.837,418.733,79.546,418.995z"/>
			</g>
			<g>
				<path style="fill:#797C99;" d="M53.827,396.681c-0.101,0.071-1.2-1.222-2.65-3.546c-1.451-2.319-3.189-5.711-4.545-9.676
					c-1.347-3.968-2.042-7.715-2.309-10.438c-0.271-2.726-0.19-4.422-0.067-4.427c0.327-0.033,0.644,6.738,3.339,14.536
					C50.223,390.952,54.106,396.508,53.827,396.681z"/>
			</g>
			<g>
				<path style="fill:#797C99;" d="M47.234,218.477c0.115,0.228-2.168,1.333-5.279,3.864c-3.102,2.498-6.951,6.64-9.457,12.185
					c-2.505,5.546-3.069,11.172-2.893,15.151c0.157,4.007,0.837,6.45,0.59,6.515c-0.153,0.057-1.219-2.31-1.664-6.44
					c-0.462-4.089-0.055-10.021,2.579-15.853c2.635-5.832,6.818-10.058,10.192-12.414C44.695,219.089,47.176,218.325,47.234,218.477
					z"/>
			</g>
			<g>
				<path style="fill:#797C99;" d="M31.884,221.197c0.128,0.11-0.934,1.413-2.329,3.705c-0.705,1.141-1.45,2.554-2.18,4.163
					c-0.704,1.621-1.379,3.445-1.913,5.413c-0.514,1.973-0.834,3.892-1.028,5.649c-0.165,1.76-0.22,3.356-0.175,4.696
					c0.073,2.682,0.347,4.34,0.181,4.372c-0.108,0.026-0.637-1.596-0.898-4.331c-0.139-1.365-0.158-3.005-0.041-4.819
					c0.147-1.811,0.449-3.795,0.978-5.828c0.55-2.028,1.273-3.899,2.045-5.544c0.799-1.633,1.63-3.047,2.428-4.163
					C30.538,222.266,31.803,221.121,31.884,221.197z"/>
			</g>
			<g>
				<path style="fill:#797C99;" d="M328.248,434.374c-0.209-0.22,2.014-2.533,5.294-6.497c1.649-1.975,3.513-4.404,5.48-7.169
					c1.937-2.787,3.958-5.922,5.885-9.329c1.904-3.42,3.526-6.78,4.895-9.885c1.335-3.119,2.436-5.976,3.263-8.413
					c1.674-4.866,2.49-7.968,2.786-7.905c0.228,0.044-0.115,3.264-1.476,8.31c-0.67,2.524-1.655,5.48-2.924,8.696
					c-1.303,3.202-2.91,6.656-4.853,10.145c-1.966,3.476-4.076,6.648-6.13,9.429c-2.084,2.759-4.093,5.14-5.898,7.027
					C330.974,432.575,328.405,434.545,328.248,434.374z"/>
			</g>
			<g>
				<path style="fill:#797C99;" d="M343.2,427.589c-0.287-0.235,4.832-6.004,9.053-14.41c4.288-8.373,5.917-15.911,6.277-15.819
					c0.139,0.029-0.088,1.949-0.878,4.969c-0.786,3.017-2.21,7.115-4.364,11.374c-2.163,4.255-4.628,7.825-6.598,10.241
					C344.721,426.366,343.306,427.684,343.2,427.589z"/>
			</g>
		</g>
		<g>
		<!-- #D1F4F6 -->
			<path style="fill:none;" d="M78.128,155.718c6.063-5.256,9.902-13.008,9.902-21.662c0-15.832-12.835-28.667-28.667-28.667
				c-15.832,0-28.667,12.834-28.667,28.667c0,15.832,12.835,28.667,28.667,28.667c2.759,0,5.424-0.398,7.949-1.125
				c7.264,8.36,19.899,10.703,19.899,10.703C82.255,167.666,79.512,160.542,78.128,155.718z"/>
			<path style="fill:#CC6164;" d="M72.333,124.182c-3.576-3.141-9.055-2.742-12.42,0.623l-0.549,0.549l-0.549-0.549
				c-3.366-3.366-8.844-3.765-12.42-0.623c-3.919,3.442-4.063,9.416-0.434,13.045l0.765,0.765l8.844,8.844
				c2.096,2.096,5.493,2.096,7.589,0l8.844-8.844l0.765-0.765C76.396,133.598,76.252,127.624,72.333,124.182z"/>
		</g>
	</g>
	<g>
		<circle style="fill:#FBEED1;" cx="566.507" cy="178.579" r="137.297"/>
		<g>
			<g>
				<path style="fill:#472948;" d="M527.559,99.289c-5.343,5.272-7.075,13.189-7.507,20.683c-0.432,7.494,0.17,15.121-1.575,22.421
					c-6.166,25.789-38.753,38.869-44.099,64.84c-1.854,9.004-0.087,18.524-2.434,27.412c-5.121,19.388-28.094,30.525-31.777,50.236
					c-2.395,12.821,4.496,25.973,14.378,34.485c9.882,8.512,22.385,13.248,34.665,17.642c12.28,4.394,24.859,8.735,35.216,16.663
					c10.135,7.757,17.589,18.543,27.506,26.576c17.74,14.37,42.353,18.626,64.779,14.35c22.426-4.276,42.79-16.37,59.902-31.482
					c13.717-12.113,26.492-29.512,21.955-47.24c-3.077-12.023-13.785-21.936-13.377-34.34c0.356-10.796,9.293-20.573,7.322-31.193
					c-2.327-12.538-17.464-17.263-26.677-26.082c-11.341-10.857-13.4-28.252-12.007-43.89s5.528-31.215,3.868-46.827
					c-2.534-23.829-19.72-45.484-42.351-53.363c-15.649-5.448-33.344-4.115-48.295,2.865c-6.456,3.014-12.843,7.736-17.343,13.069
					C542.208,94.116,533.784,93.146,527.559,99.289z"/>
				<g>
					<g>
						<path style="fill:#59385B;" d="M630.968,164.525c-3.537-1.186-6.795-3.57-9.38-6.74c-2.603-3.163-4.628-7.026-6.148-11.196
							c-1.514-4.189-2.596-8.738-3.908-13.374c-1.307-4.627-2.895-9.423-5.516-13.809c-2.611-4.375-6.139-8.17-10.189-11.087
							c-4.048-2.92-8.616-4.969-13.24-6.007c-4.622-1.046-9.252-1.116-13.497-0.461c-4.251,0.663-8.108,2.069-11.359,3.857
							c3.494-1.259,7.392-2.126,11.517-2.338c4.12-0.203,8.458,0.233,12.683,1.477c8.446,2.439,16.369,8.387,21.087,16.349
							c4.77,7.971,6.245,17.788,9.992,26.37c1.881,4.292,4.363,8.206,7.453,11.253C623.527,161.878,627.295,163.917,630.968,164.525
							z"/>
					</g>
					<g>
						<path style="fill:#59385B;" d="M632.135,153.452c0.164-6.376,0.116-13.787-1.1-21.653c-1.199-7.833-3.762-16.18-8.452-23.423
							c-2.347-3.599-5.174-6.931-8.477-9.635c-3.261-2.742-7.037-4.807-10.879-6.085c-3.85-1.283-7.803-1.812-11.5-1.575
							c-3.703,0.187-7.118,1.232-9.955,2.674c3.036-0.982,6.429-1.55,9.969-1.361c3.534,0.141,7.194,0.949,10.709,2.374
							c7.09,2.799,13.252,8.435,17.614,15.237c4.41,6.814,7.1,14.644,8.76,22.211C630.499,139.799,631.303,147.124,632.135,153.452z
							"/>
					</g>
					<g>
						<path style="fill:#59385B;" d="M641.508,136.585c0.815-3.389,1.134-7.504,0.635-11.85c-0.485-4.343-1.78-8.896-3.81-13.104
							c-2.039-4.204-4.805-8.045-7.91-11.121c-3.098-3.089-6.522-5.394-9.685-6.858c2.551,2.388,5.287,5.224,7.821,8.509
							c2.54,3.276,4.877,6.988,6.785,10.916c1.895,3.934,3.354,8.071,4.347,12.095C640.694,129.197,641.22,133.103,641.508,136.585z
							"/>
					</g>
					<g>
						<path style="fill:#59385B;" d="M639.855,273.72c-2.955-3.803-5.091-8.714-6.203-14.219
							c-1.151-5.501-1.449-11.534-1.558-17.642c-0.103-6.153-0.263-12.495-1.447-18.402c-0.586-2.946-1.429-5.768-2.558-8.305
							c-1.123-2.539-2.534-4.776-4.084-6.601c1.837,4.446,2.902,9.686,3.253,15.362c0.388,5.676,0.175,11.781,0.277,18.026
							c0.111,6.28,0.811,12.726,2.825,18.486c1,2.87,2.333,5.545,3.968,7.817C635.954,270.52,637.879,272.369,639.855,273.72z"/>
					</g>
					<g>
						<path style="fill:#59385B;" d="M651.387,244.934c-1.552-3.522-3.249-7.536-4.763-11.888c-1.52-4.348-2.858-9.027-3.865-13.78
							c-0.996-4.756-1.658-9.577-2.02-14.169c-0.37-4.592-0.436-8.95-0.436-12.799c-1.204,3.649-2.071,8.061-2.308,12.836
							c-0.246,4.772,0.137,9.895,1.184,14.885c1.055,4.988,2.77,9.831,4.919,14.099C646.241,238.392,648.814,242.08,651.387,244.934
							z"/>
					</g>
					<g>
						<path style="fill:#59385B;" d="M505.709,255.557c-1.098-4.171-0.897-8.978,0.579-13.733c1.443-4.777,3.996-9.49,7.006-13.943
							c1.521-2.257,3.141-4.544,4.575-6.98c1.432-2.435,2.674-5.013,3.383-7.74c0.698-2.709,0.84-5.468,0.373-7.986
							c-0.462-2.519-1.624-4.74-3.132-6.263c0.952,1.93,1.417,4.136,1.354,6.417c-0.066,2.282-0.598,4.632-1.505,6.889
							c-1.825,4.536-5.256,8.712-8.43,13.382c-3.198,4.725-5.713,10.102-6.604,15.536c-0.45,2.706-0.486,5.41-0.059,7.893
							C503.666,251.514,504.558,253.75,505.709,255.557z"/>
					</g>
					<g>
						<path style="fill:#59385B;" d="M488.185,248.952c-0.94-5.314-1.36-11.381-0.493-17.651c0.83-6.254,2.841-12.671,6.102-18.38
							c3.14-5.696,8.111-10.656,11.766-16.46c1.834-2.892,3.268-5.973,4.011-9.073c0.759-3.089,0.77-6.191,0.039-8.793
							c-0.237,5.448-3.129,10.799-7.171,15.61c-2.024,2.443-4.337,4.839-6.654,7.446c-2.318,2.583-4.623,5.491-6.452,8.729
							c-3.683,6.436-5.479,13.82-5.483,20.672C483.796,237.93,485.629,244.221,488.185,248.952z"/>
					</g>
					<g>
						<path style="fill:#59385B;" d="M521.504,158.05c1.921-0.626,3.936-1.686,5.751-3.212c1.835-1.506,3.491-3.423,4.904-5.58
							c2.869-4.33,4.563-9.604,5.88-14.68c1.326-5.106,2.403-10.105,4.162-14.536c1.716-4.445,4.091-8.305,7.025-11.124
							c-1.814,0.893-3.664,2.198-5.296,3.905c-1.651,1.691-3.109,3.741-4.345,5.986c-2.504,4.506-3.967,9.761-5.277,14.795
							c-1.314,5.056-2.579,9.969-4.662,14.224C527.61,152.098,524.813,155.678,521.504,158.05z"/>
					</g>
					<g>
						<path style="fill:#59385B;" d="M677.005,295.437c-1.752-3.914-3.04-8.589-3.318-13.574c-0.118-2.491-0.008-5.049,0.418-7.581
							c0.224-1.269,0.496-2.511,0.863-3.778c0.363-1.27,0.787-2.567,1.198-3.91c0.819-2.669,1.607-5.605,1.527-8.708
							c-0.091-3.113-1.175-6.068-2.718-8.405c-1.525-2.375-3.425-4.235-5.302-5.826c-1.901-1.572-3.815-2.867-5.638-3.997
							c2.719,3.286,6.157,6.926,8.272,11.322c1.056,2.184,1.633,4.54,1.56,6.912c-0.084,2.393-0.792,4.886-1.603,7.507
							c-0.402,1.312-0.821,2.661-1.176,4.064c-0.36,1.402-0.615,2.872-0.775,4.311c-0.303,2.893-0.15,5.765,0.336,8.461
							C671.659,287.637,674.112,292.274,677.005,295.437z"/>
					</g>
					<g>
						<path style="fill:#59385B;" d="M540.119,276.155c-1.16-3.949-2.341-8.449-3.19-13.285c-0.858-4.833-1.387-9.993-1.471-15.167
							c-0.07-5.174,0.306-10.348,1.02-15.204c0.705-4.859,1.752-9.392,2.794-13.374c-2.232,3.448-4.275,7.822-5.662,12.759
							c-1.398,4.93-2.139,10.405-2.063,15.877c0.086,5.472,0.989,10.923,2.533,15.809
							C535.614,268.464,537.786,272.775,540.119,276.155z"/>
					</g>
					<g>
						<path style="fill:#59385B;" d="M598.922,272.554c2.107-3.173,4.129-7.126,5.727-11.572c1.605-4.441,2.782-9.368,3.373-14.368
							c0.584-5.001,0.582-10.066,0.052-14.759c-0.523-4.695-1.573-9.01-2.886-12.585c0.128,3.812,0.258,8.136,0.17,12.714
							c-0.081,4.577-0.377,9.406-0.936,14.206c-0.569,4.799-1.402,9.565-2.385,14.036C601.06,264.7,599.931,268.875,598.922,272.554
							z"/>
					</g>
					<g>
						<path style="fill:#59385B;" d="M646.543,190.872c-0.323-3.206-0.644-6.842-0.747-10.7c-0.109-3.857-0.003-7.933,0.372-11.986
							c0.384-4.053,1.037-8.077,1.861-11.847c0.818-3.772,1.808-7.285,2.721-10.375c-1.832,2.645-3.581,5.974-4.928,9.74
							c-1.353,3.761-2.301,7.951-2.703,12.197c-0.394,4.247-0.241,8.539,0.39,12.486
							C644.133,184.337,645.234,187.933,646.543,190.872z"/>
					</g>
				</g>
			</g>
			<g>
				<g>
					<g>
						<path style="fill:#E68799;" d="M643.375,257.295l-43.348-11.132c-5.93,8.025-15.517,13.381-25.521,13.772
							c-11.157,0.437-22.283-5.316-28.638-14.452l-65.992,11.811l-6,151.975h177L643.375,257.295z"/>
						<path style="fill:#D1527D;" d="M525.208,249.256l56.917,51.526l7.25-8l20.667,15.342l4.578,0.719
							c6.872,1.079,13.007,4.912,16.99,10.614l6.515,9.325c-4.25-32,5.942-57.459,5.942-57.459l6.808,137.946h-177l6-151.975
							L525.208,249.256z"/>
					</g>
					<g>
						<g>
							<path style="fill:#D1527D;" d="M541.641,257.526c3.04,4.008,7.612,7.993,13.339,10.831
								c5.701,2.856,12.529,4.547,19.415,4.451c6.886-0.096,13.664-1.976,19.283-4.99c5.646-2.996,10.104-7.107,13.032-11.199
								c-4.072,2.97-8.974,5.849-14.522,7.927c-5.533,2.09-11.685,3.377-17.86,3.469c-6.174,0.08-12.361-1.035-17.95-2.97
								C550.774,263.123,545.794,260.382,541.641,257.526z"/>
						</g>
						<g>
							<path style="fill:#D1527D;" d="M600.151,271.323c-2.673,1.164-5.732,2.388-9.058,3.402c-3.323,1.02-6.906,1.833-10.536,2.327
								c-3.632,0.485-7.302,0.651-10.776,0.548c-3.476-0.097-6.75-0.466-9.636-0.881c2.605,1.295,5.851,2.379,9.439,2.949
								c3.585,0.579,7.5,0.644,11.344,0.129c3.843-0.522,7.601-1.623,10.904-3.131C595.14,275.167,597.982,273.263,600.151,271.323z
								"/>
						</g>
					</g>
				</g>
				<g>
					<g>
						<path style="fill:#BD6C67;" d="M574.506,259.935c10.004-0.392,19.591-5.747,25.521-13.772l-4.402-1.13l-2.25-33.037h-40.417
							l-3.917,32.92l-3.174,0.568C552.223,254.619,563.349,260.372,574.506,259.935z"/>
						<path style="fill:#472948;" d="M552.369,216.947c9.256,24.211,34.381,21.94,41.318-0.362l-0.313-4.589h-40.417
							L552.369,216.947z"/>
					</g>
					<g>
						<g>
							<path style="fill:#A64F5A;" d="M612.152,181.09c2.054-3.438,5.483-6.227,9.456-6.726c3.974-0.499,8.348,1.735,9.604,5.537
								c1.283,3.884-0.768,8.043-3.077,11.419c-1.639,2.395-3.483,4.716-5.889,6.338c-2.406,1.622-5.463,2.473-8.263,1.71
								C605.872,197.157,609.149,186.118,612.152,181.09z"/>
							<path style="fill:#8C404C;" d="M627.673,180.532c-1.783-1.404-4.333-1.59-6.468-0.821c-2.135,0.769-3.884,2.381-5.198,4.231
								c-1.315,1.85-2.24,3.942-3.155,6.018c-0.303,0.687-0.61,1.387-0.699,2.132c-0.089,0.745,0.07,1.558,0.593,2.097
								c0.897,0.925,2.45,0.709,3.606,0.142c1.939-0.951,3.463-2.717,4.12-4.774c0.657-2.057,0.44-4.379-0.589-6.279
								C621.626,181.085,624.931,179.958,627.673,180.532z"/>
						</g>
						<g>
							<path style="fill:#A64F5A;" d="M537.097,179.047c-2.054-3.438-5.483-6.227-9.456-6.726c-3.973-0.499-8.348,1.735-9.604,5.537
								c-1.283,3.884,0.768,8.043,3.077,11.419c1.639,2.395,3.483,4.716,5.889,6.338c2.406,1.622,5.463,2.473,8.263,1.711
								C543.378,195.114,540.101,184.075,537.097,179.047z"/>
							<path style="fill:#8C404C;" d="M521.577,178.489c1.783-1.403,4.333-1.59,6.468-0.821c2.135,0.769,3.884,2.381,5.198,4.231
								c1.315,1.85,2.239,3.942,3.155,6.018c0.303,0.687,0.61,1.387,0.699,2.132c0.089,0.745-0.07,1.557-0.592,2.096
								c-0.897,0.925-2.45,0.709-3.606,0.142c-1.939-0.951-3.463-2.716-4.12-4.774c-0.657-2.058-0.44-4.379,0.589-6.279
								C527.624,179.042,524.319,177.914,521.577,178.489z"/>
						</g>
						<g>
							<path style="fill:#BD6C67;" d="M559.805,118.06c-5.979,1.055-10.289,6.449-12.604,12.062
								c-2.316,5.613-3.216,11.735-5.607,17.316c-2.046,4.775-5.175,9.081-9.084,12.502c2.615,37.842,12.115,62.342,38.865,63.592
								s40.25-25.25,44-54.25c-24.75-5.25-16.75-19.75-25-37.5S567.693,113.506,559.805,118.06z"/>
							<path style="fill:#A64F5A;" d="M590.375,131.782c-8.25-17.75-22.682-18.276-30.57-13.722
								c-5.979,1.055-10.289,6.449-12.604,12.062c-2.316,5.613-3.216,11.735-5.607,17.316c-2.046,4.775-5.175,9.081-9.084,12.502
								c0.164,2.373,0.355,4.693,0.576,6.959c5.143-3.69,9.131-8.985,11.207-14.968c1.368-3.942,1.92-8.111,2.655-12.219
								c0.734-4.108,1.685-8.253,3.753-11.877c2.068-3.625,5.413-6.708,9.492-7.588c5.307-3.09,11.74-2.652,16.478-0.324
								c4.738,2.328,8.32,6.593,10.669,11.321c2.349,4.728,3.57,9.929,4.552,15.116c1.408,7.436,2.47,15.231,6.671,21.526
								c3.508,5.257,9.146,9.013,15.306,10.374c0.609-2.947,1.114-5.947,1.506-8.978
								C590.625,164.032,598.625,149.532,590.375,131.782z"/>
						</g>
						<g>
							<path style="fill:#472948;" d="M558.437,153.452c-6.393,0.146-12.775,0.721-19.078,1.719
								c1.022-1.737,2.531-3.491,4.218-4.708c1.687-1.217,3.76-2.023,5.9-2.077C552.849,148.301,557.07,150.603,558.437,153.452z"/>
							<path style="fill:#472948;" d="M552.958,170.949c0,2.163-1.754,3.917-3.917,3.917s-3.917-1.753-3.917-3.917
								c0-2.163,1.754-3.917,3.917-3.917S552.958,168.786,552.958,170.949z"/>
							<path style="fill:#472948;" d="M587.31,153.452c6.393,0.146,12.775,0.721,19.078,1.719c-1.022-1.737-2.531-3.491-4.218-4.708
								c-1.687-1.217-3.76-2.023-5.9-2.077C592.898,148.301,588.677,150.603,587.31,153.452z"/>
							<path style="fill:#472948;" d="M587.856,170.949c0,2.163,1.753,3.917,3.917,3.917c2.163,0,3.917-1.753,3.917-3.917
								c0-2.163-1.754-3.917-3.917-3.917C589.609,167.032,587.856,168.786,587.856,170.949z"/>
							<path style="fill:#A64F5A;" d="M578.626,189.185c-4.792,0.085-9.583,0.17-14.375,0.255c1.446,2.377,4.197,4.079,6.979,4.073
								S577.191,191.569,578.626,189.185z"/>
							<path style="fill:#E68799;" d="M553.444,187.543c0.363,3.016-2.788,5.875-7.037,6.387c-4.249,0.512-7.989-1.518-8.352-4.534
								c-0.363-3.016,2.787-5.875,7.037-6.387C549.342,182.497,553.081,184.527,553.444,187.543z"/>
							<path style="fill:#E68799;" d="M589.595,187.543c-0.363,3.016,2.787,5.875,7.037,6.387c4.25,0.512,7.989-1.518,8.352-4.534
								c0.363-3.016-2.788-5.875-7.037-6.387C593.697,182.497,589.958,184.527,589.595,187.543z"/>
							<path style="fill:#FFFFFF;" d="M589.623,197.607c-10.695,1.712-21.505,2.707-32.333,2.975
								c2.388,4.061,6.277,7.384,10.71,8.979c4.433,1.595,9.526,1.417,13.726-0.716C585.926,206.71,588.855,202.255,589.623,197.607
								z"/>
							<path style="fill:#A64F5A;" d="M583.224,211.996c-3.637,1.219-7.521,1.696-11.344,1.394c1.799,1.195,3.863,2.513,6.023,2.523
								C580.062,215.922,582.598,214.063,583.224,211.996z"/>
						</g>
					</g>
				</g>
			</g>
			<g>
				<path style="fill:#E68799;" d="M584.041,344.782l-0.284,3.907c-0.37,5.098,1.187,10.148,4.362,14.153l36.817,46.427
					l28.928,15.142c10.102,5.287,22.168,5.22,32.21-0.179l0,0c13.811-7.426,20.844-23.26,17.093-38.486l-24.57-99.741
					c-3.396-13.783-14.404-24.392-28.304-27.276l-6.92-1.435c-7.5,23.987,1.41,72.975,4.622,93.648l-21.207-29.925
					c-3.145-4.438-7.933-7.437-13.3-8.329l-3.448-0.573L584.041,344.782z"/>
				<g>
					<g>
						<path style="fill:#D1527D;" d="M590.812,355.47c3.466-0.137,7.511-1.062,11.448-2.995c3.937-1.915,7.746-4.831,10.745-8.469
							c2.999-3.637,5.136-7.932,6.265-12.162c1.147-4.234,1.284-8.381,0.758-11.81c-0.577,3.426-1.53,7.23-3.106,11.016
							c-1.564,3.786-3.742,7.543-6.466,10.853c-2.73,3.306-6.003,6.16-9.422,8.417C597.618,352.59,594.066,354.251,590.812,355.47z"
							/>
					</g>
					<g>
						<path style="fill:#D1527D;" d="M672.412,316.567c-4.17,3.273-8.937,8.379-12.856,14.099
							c-3.939,5.706-7.001,11.984-8.566,17.05c3.075-4.323,6.782-10.024,10.644-15.62
							C665.478,326.486,669.476,320.985,672.412,316.567z"/>
					</g>
					<g>
						<path style="fill:#D1527D;" d="M667.386,337.051c-2.948,0.531-6.399,2.207-9.332,4.562c-2.942,2.344-5.334,5.343-6.5,8.102
							c2.695-1.317,5.652-3.397,8.468-5.642C662.831,341.819,665.509,339.391,667.386,337.051z"/>
					</g>
					<g>
						<path style="fill:#D1527D;" d="M676.359,360.055c-1.918-2.799-5.311-5.564-9.184-7.391c-3.864-1.846-8.152-2.727-11.533-2.444
							c2.74,2.011,6.337,3.92,10.002,5.667C669.315,357.623,673.068,359.204,676.359,360.055z"/>
					</g>
				</g>
				<path style="fill:#D1527D;" d="M647.996,350.943l25.752,36.339C673.125,358.282,647.996,350.943,647.996,350.943z"/>
			</g>
			<g>
				<g>
					<path style="fill:#C7D2D7;" d="M611.681,413.971c8.547-3.455,18.379-0.18,26.221,4.667c7.842,4.846,14.762,11.27,23.216,14.945
						c14.488,6.298,32.397,3.193,44.405-7.072c12.008-10.265,17.857-27.02,15.586-42.653c-0.838-5.771-2.758-11.498-6.355-16.089
						c-3.597-4.591-9.014-7.936-14.839-8.22c-5.825-0.284-11.893,2.869-14.297,8.182c-2.838,6.271-0.281,13.576,2.628,19.815
						c2.909,6.239,6.264,12.923,4.909,19.672c-1.594,7.937-9.67,13.388-17.739,14.051c-8.069,0.663-15.982-2.555-22.929-6.713
						c-6.947-4.157-13.288-9.302-20.427-13.119c-7.14-3.817-15.454-6.269-23.342-4.448
						C609.471,401.788,610.927,409.172,611.681,413.971z"/>
					<g>
						<path style="fill:#99A3B0;" d="M693.154,407.217c-0.249,1.24-0.672,2.411-1.213,3.521c4.06,5.687,9.186,10.607,15.02,14.453
							c3.984-3.738,7.222-8.208,9.625-13.113c-8.239-0.378-16.366-3.133-23.134-7.845
							C693.441,405.225,693.354,406.22,693.154,407.217z"/>
						<path style="fill:#99A3B0;" d="M664.054,430.496c-7.095-3.454-13.16-8.66-19.69-13.09c-6.531-4.43-14.527-8.353-22.418-8.3
							c0.418-4.094-0.204-8.281-1.739-12.098c-3.81-0.776-7.698-0.895-11.489-0.02c0.753,4.799,2.21,12.183,2.963,16.982
							c8.547-3.455,18.379-0.18,26.221,4.667c7.842,4.846,14.762,11.27,23.216,14.945c9.461,4.113,20.374,4.193,30.157,0.91
							C682.07,435.896,672.433,434.575,664.054,430.496z"/>
						<path style="fill:#99A3B0;" d="M721.464,393.764c0.219-3.305,0.121-6.63-0.355-9.907c-0.011-0.075-0.027-0.15-0.038-0.226
							c-5.908,2.15-12.312,2.94-18.557,2.2c-6.156-0.729-12.116-2.937-17.306-6.323c0.727,2.761,1.849,5.488,3.038,8.036
							c0.21,0.45,0.422,0.904,0.635,1.358C698.498,394.768,710.552,396.556,721.464,393.764z"/>
					</g>
				</g>
				<g>
					<g>
						<path style="fill:#C7D2D7;" d="M613.487,414.156c5.303-10.036,3.025-22.828-3.295-32.258
							c-6.32-9.429-16.07-16.006-26.101-21.319c-10.031-5.313-20.62-9.63-30.131-15.825c-8.78-5.719-16.539-12.999-22.804-21.397
							c-3.682-4.935-6.929-10.478-7.568-16.603c-0.639-6.124,1.608-12.796,7.076-15.627c1.431,5.954,5.904,11.122,11.153,14.276
							c2.182-14.667-1.055-30.078-8.955-42.626c-7.9-12.548-20.397-22.13-34.566-26.502c-12.789-3.946-26.12-2.831-39.473-1.923
							c4.275,4.934,10.113,8.678,16.336,10.648c-11.906,16.715-23.977,33.748-30.498,53.206
							c-8.063,24.061-7.084,50.101-5.579,75.432c14.575,18.108,33.999,31.811,55.614,40.361
							c21.615,8.551,44.88,12.415,68.105,13.383C580.561,428.122,605.182,429.873,613.487,414.156z"/>
						<path style="fill:#99A3B0;" d="M529.727,282.449c-2.029,3.775-2.603,8.232-2.697,11.616c0.996-1.189,2.201-2.198,3.632-2.939
							C529.875,287.116,529.497,284.116,529.727,282.449z"/>
						<path style="fill:#99A3B0;" d="M487.125,247.532c-3.313-0.188-8-1.438-11.967-2.533c-0.999,1.403-1.999,2.809-2.997,4.218
							C476.57,249.362,482.589,249.169,487.125,247.532z"/>
						<path style="fill:#99A3B0;" d="M584.09,360.579c-10.031-5.313-20.62-9.63-30.131-15.825
							c-8.78-5.719-16.539-12.999-22.804-21.397c-2.152-2.885-4.151-5.979-5.572-9.274c-1.284,6.972-5.381,13.459-11.365,17.295
							c-2.26,1.449-4.817,2.603-6.459,4.727s-1.865,5.688,0.388,7.147c1.72,1.113,4.026,0.518,5.837-0.439s3.518-2.266,5.545-2.56
							c3.631-0.526,7.046,2.611,7.89,6.182c0.843,3.571-0.324,7.325-2.004,10.588c-1.68,3.262-3.88,6.253-5.334,9.622
							c-0.581,1.346-1.046,2.8-0.882,4.257c0.163,1.457,1.094,2.909,2.508,3.294c1.915,0.522,3.739-0.973,5.164-2.354
							c4.035-3.911,8.069-7.822,12.104-11.732c1.569-1.521,3.192-3.078,5.216-3.901c2.024-0.823,4.573-0.748,6.151,0.764
							c2.12,2.032,1.613,5.561,0.411,8.24c-1.654,3.687-4.313,6.936-5.369,10.836c-1.056,3.9,0.295,8.982,4.183,10.084
							c2.277,0.645,4.765-0.303,6.554-1.852c1.789-1.549,3.015-3.631,4.221-5.667c2.01-3.394,4.16-6.883,7.456-9.048
							c3.296-2.166,8.079-2.598,10.979,0.075c2.637,2.431,2.91,6.496,2.425,10.05c-0.485,3.554-1.541,7.139-0.886,10.665
							c0.655,3.526,3.874,6.957,7.38,6.2c2.536-0.548,4.197-3.029,4.992-5.499c0.795-2.47,1.007-5.122,2.05-7.498
							c1.043-2.376,3.299-4.531,5.883-4.288c2.221,0.209,3.908,2.087,5.041,4.009c1.133,1.922,1.998,4.075,3.659,5.566
							c1.4,1.257,3.315,1.866,5.19,1.782c-1.062-3.087-2.519-6.047-4.317-8.73C603.872,372.469,594.121,365.892,584.09,360.579z"/>
						<path style="fill:#DCE2E5;" d="M488.176,368.107c-1.489-7.932-2.461-16.139-6.145-23.32
							c-3.684-7.181-10.903-13.26-18.962-12.81c-8.069,0.451-14.605,7.37-17.185,15.028c-2.581,7.659-2.031,15.971-1.453,24.032
							c0.228,3.182,0.457,6.364,0.685,9.546c13.72,14.691,30.822,25.996,49.579,33.416c5.517,2.182,11.142,4.055,16.845,5.657
							c-3.522-3.888-6.653-8.145-9.356-12.631C495.029,395.153,490.733,381.731,488.176,368.107z"/>
						<path style="fill:#99A3B0;" d="M572.697,385.591c-11.824-1.206-24.719,2.842-33.105,11.264
							c-6.998,7.028-11.157,16.751-11.617,26.645c3.447,0.654,6.913,1.213,10.391,1.7c0.676-7.305,3.104-14.454,7.133-20.588
							C551.722,395.139,561.665,388.185,572.697,385.591z"/>
					</g>
					<g>
						<g>
							<path style="fill:#472948;" d="M494.744,270.53c0.402-1.3,0.463-2.938,0.04-4.605c-0.414-1.666-1.31-3.35-2.593-4.704
								c-1.282-1.355-2.914-2.343-4.555-2.847c-1.642-0.513-3.281-0.543-4.6-0.212c2.434,1.222,5.032,2.859,7.074,5.03
								C492.166,265.349,493.658,268.033,494.744,270.53z"/>
						</g>
						<g>
							<path style="fill:#472948;" d="M521.176,286.77c-0.328-1.218-1.055-2.532-2.137-3.676c-1.076-1.148-2.497-2.12-4.06-2.746
								c-1.564-0.624-3.263-0.901-4.834-0.811c-1.573,0.083-3.005,0.533-4.083,1.188c2.5,0.411,5.284,1.025,7.929,2.091
								C516.643,283.867,519.082,285.344,521.176,286.77z"/>
						</g>
						<path style="fill:#495375;" d="M498.572,296.468c-1.754-0.699-3.409-1.891-4.5-3.504c-1.105-1.599-1.673-3.566-1.445-5.386
							c0.072-0.591,0.228-1.16,0.44-1.698c0.529-0.633,0.936-1.321,1.212-2.011c0.253-0.29,0.525-0.557,0.816-0.788
							c-0.217,0.078-0.434,0.181-0.648,0.298c0.086-0.275,0.158-0.549,0.2-0.818c-0.205,0.393-0.449,0.777-0.726,1.147
							c-0.534,0.381-1.031,0.881-1.448,1.475c-0.57,0.473-1.188,0.904-1.886,1.229c-1.807,0.868-3.972,1.02-5.998,0.47
							c-2.033-0.541-3.844-1.747-5.161-3.3c-1.333-1.546-2.193-3.361-2.716-5.046c-0.033,1.761,0.448,3.886,1.705,5.801
							c1.227,1.921,3.325,3.539,5.736,4.17c2.392,0.669,5.103,0.294,7.047-0.992c0.101-0.064,0.192-0.137,0.289-0.205
							c-0.004,0.015-0.01,0.029-0.014,0.043c-0.563,2.132-0.011,4.604,1.307,6.496c1.305,1.935,3.384,3.225,5.434,3.737
							c2.063,0.532,4.112,0.276,5.604-0.404C502.188,297.355,500.333,297.174,498.572,296.468z"/>
						<path style="fill:#99A3B0;" d="M500.769,307.042c-12.1-3.909-23.304-10.564-32.524-19.321
							c1.433,6.968,5.444,13.289,11.517,16.995C485.835,308.422,493.917,308.955,500.769,307.042z"/>
						<path style="fill:#472948;" d="M500.258,285.213c-2.115-2.927-5.021-5.278-8.325-6.735c-0.38,2.344-0.173,5.112,0.829,7.265
							C495.106,286.133,497.968,285.845,500.258,285.213z"/>
					</g>
				</g>
			</g>
			<g>
				<g>
					<path style="fill:#E68799;" d="M525.208,411.616l-1.741-4.607c-1.427-3.777-4.559-6.646-8.446-7.736
						c-4.696-1.317-11.692-3.352-19.62-5.901c-17.274-5.555-38.968-13.551-50.936-21.881c-2.326-1.619-4.288-3.251-5.775-4.879
						c-0.001-0.021-0.002-0.041-0.003-0.062c-0.601-11.46-0.925-23.01-0.212-34.411l-0.001-0.176c0,0-16.386,19.827-24.649,47.275
						c-1.367,4.542-1.051,9.427,0.79,13.799l7.034,16.706c1.496,3.552,3.952,6.609,7.098,8.836
						c12.311,8.716,45.833,30.934,75.833,37.158c3.428,0.711,6.995-0.054,9.856-2.072l3.94-2.779
						C518.375,450.885,510.375,431.782,525.208,411.616z"/>
					<path style="fill:#EBA7AC;" d="M540.64,414.582l-10.62-2.041l-4.812-0.925c-14.833,20.167-6.833,39.269-6.833,39.269
						l25.99,5.819l1.463-30.576l0.408-8.53l0,0c0-1.126-0.799-2.094-1.906-2.307L540.64,414.582z"/>
					<g>
						<path style="fill:#D1527D;" d="M429.396,369.298c0.574-4.933,2.355-9.942,4.668-14.337c-0.606,6.155,2.752,9.813,4.625,11.65
							c-0.001-0.021-0.002-0.041-0.003-0.062c-0.416-7.943-0.691-15.929-0.588-23.879
							C431.66,349.807,428.368,359.73,429.396,369.298z"/>
						<path style="fill:#D1527D;" d="M445.615,406.255c-2.794-2.969-5.383-6.127-7.662-9.248c-2.284-3.118-4.254-6.199-5.956-8.942
							c0.755,3.133,2.083,6.662,4.013,10.175c1.922,3.515,4.442,7.008,7.373,10.12c2.936,3.108,6.275,5.828,9.671,7.952
							c3.395,2.133,6.839,3.664,9.923,4.602c-2.639-1.859-5.599-4.006-8.578-6.469C451.417,411.988,448.416,409.218,445.615,406.255
							z"/>
						<path style="fill:#D1527D;" d="M449.607,404.772c3.228,2.945,8.465,5.769,14.147,6.992c5.67,1.279,11.609,0.918,15.776-0.397
							c-4.374-0.066-9.923-0.423-15.328-1.635C458.788,408.559,453.604,406.551,449.607,404.772z"/>
						<path style="fill:#D1527D;" d="M508.078,411.617c-2.043,2.96-3.664,6.511-4.602,10.241c-0.93,3.733-1.172,7.628-0.764,11.202
							c0.396,3.579,1.445,6.815,2.772,9.352c-0.465-2.833-0.795-6.051-0.729-9.451c0.058-3.398,0.504-6.968,1.367-10.441
							c0.875-3.47,2.163-6.83,3.712-9.854c1.543-3.031,3.35-5.714,5.094-7.993C512.563,406.286,510.113,408.646,508.078,411.617z"/>
					</g>
				</g>
				<path style="fill:#BD6C67;" d="M625.786,415.541c-1.767-1.454-4.445-0.985-6.119,0.575c-1.674,1.56-3.708,2.625-6.044,3.879
					c1.367-1.333,2.778-2.734,3.403-4.537c0.625-1.803,0.194-4.128-1.471-5.062c-2.203-1.237-4.819,0.513-6.825,2.049
					c-6.579,5.037-14.231,8.664-22.294,10.569c-2.272,0.537-5.012,0.808-6.614-0.891c-1.153-1.223-1.287-3.163-0.682-4.73
					c0.605-1.568,1.83-2.817,3.145-3.864c1.554-1.238,3.317-2.301,4.427-3.948s1.307-4.155-0.216-5.432
					c-1.657-1.389-4.167-0.57-6.083,0.43c-7.185,3.75-13.468,9.261-18.039,15.954c0,0-7.507-1.133-16.139-2.935
					c-11.528,15.518-4.901,33.287-4.901,33.287c21.578,8.769,46.051,10.233,68.521,4.1c1.52-0.415,3.08-0.889,4.279-1.91
					c1.199-1.021,1.948-2.737,1.388-4.209c-0.386-1.015-1.435-1.73-2.529-1.987c4.15-1.792,7.893-4.526,10.816-7.976
					c0.713-0.842,1.396-1.758,1.654-2.831c0.258-1.073-0.004-2.339-0.894-2.991c-1.113-0.817-2.667-0.411-3.976,0.028
					c-2.794,0.936-5.588,1.872-8.381,2.807c5.541-3.379,10.201-8.188,13.404-13.832c0.587-1.035,1.135-2.125,1.278-3.306
					C627.036,417.596,626.704,416.297,625.786,415.541z"/>
				<path style="fill:#A64F5A;" d="M586.734,456.937c-13.248-0.312-26.783-3.831-39.22-8.798c-2.938-1.174-5.077-3.832-5.482-6.97
					c-0.869-6.732-0.185-13.663,1.951-20.107c-8.321,14.58-2.647,29.823-2.647,29.823c21.578,8.769,46.051,10.233,68.521,4.1
					c0.58-0.158,1.16-0.337,1.729-0.539C603.441,456.275,595.079,457.134,586.734,456.937z"/>
				<path style="fill:#B23665;" d="M547.386,453.127c0.004-0.007,0.006-0.013,0.009-0.02c-2.04-0.685-4.066-1.412-6.06-2.222
					C543.375,457.907,544.771,458.473,547.386,453.127z"/>
				<g>
					<g>
						<path style="fill:#8C404C;" d="M589.526,431.316c3.774,0.174,8.802-0.753,13.331-2.9c4.547-2.107,8.477-5.378,10.758-8.39
							c-3.117,2.144-7.169,4.739-11.521,6.761C597.754,428.838,593.167,430.292,589.526,431.316z"/>
					</g>
					<g>
						<path style="fill:#8C404C;" d="M594.209,441.026c2.579,0.44,6.09,0.301,9.42-0.628c3.337-0.904,6.426-2.579,8.417-4.276
							c-2.427,0.986-5.533,2.202-8.747,3.075C600.089,440.09,596.798,440.633,594.209,441.026z"/>
					</g>
					<g>
						<path style="fill:#8C404C;" d="M593.999,449.805c2.601,0.568,6.131,0.707,9.591,0.204c3.462-0.484,6.813-1.604,9.152-2.876
							c-2.622,0.474-5.959,1.149-9.331,1.622C600.042,449.243,596.649,449.528,593.999,449.805z"/>
					</g>
				</g>
			</g>
			<g>
				<path style="fill:#EBA7AC;" d="M565.115,324.83l18.927,19.952c24-10.667,26-32.667,26-32.667l-20.667-19.333L565.115,324.83z"/>
				<g>
					<path style="fill:#B23665;" d="M570.533,314.082L570.533,314.082c0,0-8.908,12.45-4.283,10.7
						c3.447-1.304,6.821-3.184,9.915-5.882l-0.915,0.632L570.533,314.082z"/>
					<path style="fill:#BD6C67;" d="M564.375,266.449c-14.562-11.404-31.105-20.603-48.367-27.246
						c-1.765-0.679-3.633-1.343-5.505-1.075c-1.872,0.267-3.705,1.795-3.634,3.685c0.069,1.813,1.726,3.107,3.259,4.077
						c3.647,2.306,7.493,4.299,11.48,5.949c-3.517-1.467-7.033-2.935-10.55-4.402c-1.499-0.626-3.045-1.261-4.669-1.277
						s-3.366,0.736-4.036,2.216c-0.706,1.56-0.01,3.468,1.21,4.669c1.221,1.201,2.864,1.852,4.46,2.474
						c5.28,2.055,10.559,4.11,15.839,6.165c-3.956-1.276-7.399-2.806-11.259-3.653c-2.254-0.495-5.147-0.595-6.289,1.41
						c-0.831,1.46-0.193,3.401,1.018,4.565c1.211,1.164,2.859,1.733,4.451,2.268c4.871,1.638,9.742,3.277,14.613,4.915
						c-2.98-0.615-5.653-1.778-8.11-1.499c-2.457,0.279-3.913,2.145-3.652,4.604c0.278,2.622,3.157,4.025,5.648,4.891
						c6.576,2.287,13.265,4.245,20.036,5.864c1.432,11.483,22.057,19.608,22.057,19.608l8.158,9.425l4.717,5.45l0.915-0.632
						c5.91-5.154,10.797-13.294,13.21-26.118L564.375,266.449z"/>
				</g>
				<path style="fill:#B23665;" d="M570.533,314.082c0,0-8.908,12.45-4.283,10.7c3.447-1.304,6.821-3.184,9.915-5.882l-0.915,0.632
					L570.533,314.082z"/>
				<path style="fill:#A64F5A;" d="M572.68,309.223c-2.702-2.781-5.21-5.775-7.303-8.953c-9.987-1.75-19.305-9.546-22.642-19.12
					c-6.359-1.169-12.717-2.339-19.076-3.508c-2.063-0.379-4.194-0.786-5.926-1.97c-1.384-0.947-2.431-2.534-2.504-4.162
					c-0.48,0.764-0.709,1.712-0.595,2.785c0.278,2.622,3.157,4.025,5.648,4.891c6.576,2.287,13.265,4.245,20.036,5.864
					c1.432,11.483,22.057,19.608,22.057,19.608l8.158,9.425l4.717,5.45l0.915-0.632c3.08-2.686,5.878-6.193,8.197-10.742
					c-0.435,0.439-0.87,0.877-1.318,1.301C580.123,312.226,575.483,312.109,572.68,309.223z"/>
				<g>
					<g>
						<path style="fill:#8C404C;" d="M542.595,276.131c-4.403-2.124-21.347-7.664-26.194-8.304
							C520.804,269.952,537.748,275.491,542.595,276.131z"/>
					</g>
					<g>
						<path style="fill:#8C404C;" d="M538.418,266.404c-4.12-2.165-21.405-8.407-25.996-9.174
							C516.542,259.396,533.827,265.638,538.418,266.404z"/>
					</g>
					<g>
						<path style="fill:#8C404C;" d="M537.943,258.917c-4.882-3.068-21.038-10.911-26.635-12.297
							C516.19,249.688,532.346,257.531,537.943,258.917z"/>
					</g>
				</g>
			</g>
		</g>
		<g>
			<g>
				<path style="fill:#797C99;" d="M420.887,338.626c0.238,0.218-1.881,2.661-4.715,6.978c-0.349,0.543-0.714,1.111-1.094,1.703
					c-0.378,0.593-0.72,1.242-1.105,1.895c-0.789,1.294-1.496,2.751-2.277,4.262c-1.468,3.069-2.897,6.529-4.07,10.274
					c-1.135,3.757-1.898,7.421-2.41,10.785c-0.203,1.688-0.439,3.291-0.513,4.804c-0.048,0.755-0.131,1.485-0.151,2.188
					c-0.018,0.703-0.036,1.379-0.053,2.024c-0.084,5.163,0.296,8.375-0.024,8.421c-0.211,0.04-1.083-3.124-1.357-8.402
					c-0.023-0.66-0.048-1.351-0.073-2.071c-0.019-0.721,0.027-1.469,0.041-2.246c0.007-1.556,0.185-3.208,0.346-4.949
					c0.425-3.47,1.158-7.259,2.328-11.128c1.208-3.857,2.732-7.403,4.331-10.512c0.847-1.531,1.627-2.997,2.497-4.288
					c0.425-0.65,0.808-1.295,1.229-1.88c0.426-0.581,0.835-1.139,1.225-1.671C418.234,340.6,420.735,338.475,420.887,338.626z"/>
			</g>
			<g>
				<path style="fill:#797C99;" d="M408.412,345.51c0.165,0.133-1.139,1.864-2.91,4.844c-0.894,1.485-1.857,3.31-2.822,5.38
					c-0.936,2.084-1.857,4.422-2.635,6.941c-0.755,2.525-1.289,4.981-1.671,7.233c-0.35,2.257-0.565,4.309-0.648,6.04
					c-0.186,3.462-0.065,5.625-0.276,5.644c-0.148,0.018-0.599-2.129-0.65-5.665c-0.035-1.767,0.087-3.873,0.38-6.195
					c0.324-2.317,0.837-4.847,1.612-7.438c0.797-2.584,1.778-4.972,2.798-7.078c1.049-2.092,2.119-3.911,3.13-5.36
					C406.73,346.946,408.299,345.412,408.412,345.51z"/>
			</g>
			<g>
				<path style="fill:#797C99;" d="M459.506,208.57c0.22,0.285-2.584,2.593-6.577,6.805c-0.494,0.531-1.012,1.087-1.551,1.666
					c-0.537,0.58-1.048,1.228-1.606,1.871c-1.134,1.271-2.218,2.734-3.393,4.242c-2.262,3.084-4.575,6.599-6.685,10.473
					c-2.073,3.895-3.736,7.76-5.066,11.346c-0.612,1.811-1.237,3.521-1.675,5.167c-0.23,0.819-0.489,1.603-0.678,2.37
					c-0.187,0.769-0.366,1.507-0.537,2.212c-1.319,5.652-1.703,9.264-2.062,9.237c-0.245-0.009-0.412-3.687,0.541-9.543
					c0.13-0.73,0.267-1.494,0.41-2.29c0.149-0.796,0.372-1.607,0.569-2.457c0.372-1.706,0.945-3.481,1.522-5.358
					c1.258-3.717,2.912-7.72,5.045-11.724c2.17-3.984,4.602-7.568,7.014-10.664c1.25-1.514,2.416-2.969,3.636-4.219
					c0.601-0.632,1.156-1.265,1.738-1.828c0.586-0.557,1.149-1.092,1.687-1.602C456.201,210.255,459.364,208.37,459.506,208.57z"/>
			</g>
			<g>
				<path style="fill:#797C99;" d="M444.6,215.692c0.116,0.151-1.384,1.394-3.555,3.63c-1.092,1.112-2.316,2.506-3.594,4.114
					c-1.256,1.626-2.554,3.476-3.764,5.513c-1.193,2.048-2.18,4.081-2.991,5.968c-0.785,1.898-1.409,3.645-1.851,5.14
					c-0.9,2.984-1.258,4.899-1.447,4.871c-0.133-0.016-0.067-1.987,0.643-5.087c0.346-1.55,0.901-3.365,1.649-5.331
					c0.775-1.955,1.758-4.057,2.982-6.158c1.242-2.09,2.602-3.971,3.935-5.597c1.356-1.609,2.672-2.975,3.859-4.031
					C442.83,216.598,444.521,215.583,444.6,215.692z"/>
			</g>
			<g>
				<path style="fill:#797C99;" d="M726.552,423.847c0.129,0.086-0.296,0.92-1.186,2.369c-0.227,0.361-0.478,0.761-0.753,1.199
					c-0.292,0.426-0.643,0.863-1.007,1.345c-0.746,0.948-1.548,2.077-2.612,3.167c-0.518,0.56-1.06,1.146-1.625,1.756
					c-0.572,0.605-1.232,1.167-1.883,1.784c-1.284,1.26-2.813,2.419-4.397,3.673c-3.257,2.386-7.066,4.714-11.32,6.64
					c-4.277,1.874-8.556,3.148-12.508,3.973c-1.992,0.339-3.876,0.701-5.672,0.812c-0.894,0.071-1.753,0.186-2.586,0.207
					c-0.832,0.012-1.63,0.023-2.393,0.034c-1.522,0.062-2.898-0.098-4.101-0.177c-0.602-0.052-1.161-0.083-1.674-0.151
					c-0.509-0.088-0.975-0.169-1.395-0.242c-1.672-0.307-2.576-0.549-2.555-0.702c0.022-0.154,0.966-0.206,2.636-0.169
					c0.417,0.013,0.88,0.028,1.386,0.044c0.507,0.004,1.059-0.027,1.649-0.036c1.182-0.041,2.523,0.006,4.001-0.156
					c0.738-0.056,1.512-0.114,2.317-0.175c0.805-0.065,1.634-0.22,2.496-0.328c1.73-0.185,3.542-0.606,5.456-0.986
					c3.796-0.908,7.899-2.194,12.026-4.001c4.104-1.859,7.804-4.049,11.019-6.263c1.563-1.168,3.087-2.234,4.382-3.396
					c0.657-0.568,1.327-1.081,1.913-1.636c0.584-0.558,1.145-1.094,1.68-1.606c1.109-0.99,1.971-2.019,2.792-2.87
					c0.401-0.433,0.794-0.823,1.13-1.202c0.327-0.387,0.625-0.741,0.894-1.06C725.754,424.428,726.424,423.761,726.552,423.847z"/>
			</g>
			<g>
				<path style="fill:#797C99;" d="M719.6,443.34c0.11,0.101-1.281,1.891-4.079,4.237c-1.391,1.18-3.167,2.443-5.235,3.693
					c-2.086,1.217-4.474,2.403-7.087,3.389c-2.622,0.96-5.205,1.622-7.58,2.063c-2.382,0.404-4.552,0.609-6.376,0.624
					c-3.651,0.051-5.874-0.396-5.856-0.544c0.017-0.222,2.249-0.117,5.807-0.409c1.779-0.135,3.884-0.432,6.19-0.892
					c2.299-0.496,4.797-1.174,7.345-2.107c2.539-0.958,4.873-2.076,6.938-3.202c2.046-1.159,3.834-2.307,5.269-3.368
					C717.82,444.72,719.442,443.183,719.6,443.34z"/>
			</g>
			<g>
				<path style="fill:#797C99;" d="M713.147,256.293c-0.32-0.007-0.223-3.212-1.15-8.208c-0.899-4.971-3.091-11.767-7.529-18.075
					c-4.437-6.308-10.093-10.668-14.468-13.194c-4.389-2.561-7.438-3.553-7.337-3.856c0.049-0.205,3.282,0.327,7.987,2.658
					c4.677,2.289,10.746,6.672,15.395,13.283c4.651,6.609,6.726,13.802,7.3,18.978C713.948,253.094,713.356,256.317,713.147,256.293
					z"/>
			</g>
			<g>
				<path style="fill:#797C99;" d="M718.638,236.816c-0.223,0.046-0.679-2.086-2.022-5.276c-0.341-0.796-0.717-1.663-1.207-2.554
					c-0.437-0.917-1.022-1.832-1.605-2.81c-1.242-1.91-2.757-3.912-4.569-5.819c-1.836-1.883-3.779-3.473-5.641-4.787
					c-0.956-0.619-1.847-1.239-2.747-1.711c-0.871-0.524-1.724-0.933-2.506-1.304c-3.137-1.463-5.25-2-5.195-2.222
					c0.022-0.131,2.234,0.084,5.563,1.369c0.829,0.326,1.732,0.699,2.655,1.198c0.952,0.446,1.897,1.05,2.905,1.664
					c1.966,1.304,4.009,2.927,5.913,4.882c1.88,1.978,3.425,4.081,4.653,6.095c0.576,1.031,1.143,1.998,1.552,2.966
					c0.463,0.941,0.801,1.858,1.096,2.698C718.639,234.58,718.77,236.799,718.638,236.816z"/>
			</g>
		</g>
	</g>
</g>
</svg>
