<?xml version="1.0" encoding="utf-8"?>
<!-- Generator: Adobe Illustrator 27.5.0, SVG Export Plug-In . SVG Version: 6.00 Build 0)  -->
<svg version="1.1" xmlns="http://www.w3.org/2000/svg" xmlns:xlink="http://www.w3.org/1999/xlink" x="0px" y="0px"
	 viewBox="0 0 500 500" style="enable-background:new 0 0 500 500;" xml:space="preserve">
<g id="BACKGROUND">
	<rect style="fill:none;" width="500" height="500"/>
</g>
<g id="OBJECTS">
	<g>
		<g>
			<g>
				<path style="fill:#36776F;" d="M225.072,239.478c0,0-24.118-39.158-34.547-89.82c-10.429-50.662-0.977-62.169,9.692-60.527
					s32.03,30.17,41.938,57.379s14.879,80.321,14.879,80.321s0.711,16.101-12.018,18.929
					C232.287,248.589,225.072,239.478,225.072,239.478z"/>
				<g>
					<path style="fill:#2A6660;" d="M239.202,242.323c0,0-1.057-7.996-5.135-26.228s-11.532-46.768-16.955-61.467
						c-5.423-14.699-12.734-30.384-9.762-30.796s12.751,29.026,17.689,45.006s16.056,58.034,17.238,71.868L239.202,242.323z"/>
					<path style="fill:#2A6660;" d="M235.584,217.781c0,0-16.752-14.517-15.338-16.827c1.414-2.31,14.508,12.584,14.508,12.584
						L235.584,217.781z"/>
					<path style="fill:#2A6660;" d="M224.729,175.337c0,0-16.752-14.517-15.338-16.827c1.414-2.31,14.508,12.584,14.508,12.584
						L224.729,175.337z"/>
					<path style="fill:#2A6660;" d="M220.752,156.226c0,0,4.42-21.712,1.89-22.682c-2.53-0.97-3.821,18.812-3.821,18.812
						L220.752,156.226z"/>
					<path style="fill:#2A6660;" d="M233.698,202.159c0,0,4.42-21.712,1.89-22.682s-3.821,18.812-3.821,18.812L233.698,202.159z"/>
				</g>
			</g>
			<g>
				<path style="fill:#36776F;" d="M292.55,235.037c0,0,15.756-24.651,22.929-56.762c7.172-32.111,1.284-39.529-5.519-38.596
					c-6.803,0.932-20.692,18.852-27.283,36.053s-10.319,50.928-10.319,50.928s-0.623,10.233,7.442,12.165
					C287.864,240.756,292.55,235.037,292.55,235.037z"/>
				<g>
					<path style="fill:#2A6660;" d="M283.533,236.698c0,0,0.757-5.075,3.546-16.627c2.788-11.552,7.833-29.623,11.438-38.915
						s8.423-19.191,6.537-19.484c-1.886-0.293-8.419,18.326-11.73,28.438c-3.311,10.111-10.83,36.741-11.729,45.527L283.533,236.698
						z"/>
					<path style="fill:#2A6660;" d="M286.096,221.128c0,0,10.809-9.057,9.934-10.541s-9.361,7.851-9.361,7.851L286.096,221.128z"/>
					<path style="fill:#2A6660;" d="M293.452,194.247c0,0,10.809-9.057,9.934-10.541s-9.361,7.851-9.361,7.851L293.452,194.247z"/>
					<path style="fill:#2A6660;" d="M296.185,182.135c0,0-2.58-13.855-0.961-14.445c1.619-0.59,2.23,12.004,2.23,12.004
						L296.185,182.135z"/>
					<path style="fill:#2A6660;" d="M287.461,211.212c0,0-2.58-13.855-0.961-14.445c1.619-0.59,2.23,12.004,2.23,12.004
						L287.461,211.212z"/>
				</g>
			</g>
			<g>
				<path style="fill:#428C81;" d="M275.892,239.955c0,0,15.301-49.498,12.43-107.701c-2.871-58.203-16.419-68.102-27.597-63.313
					c-11.178,4.789-26.46,41.915-29.617,74.384s6.357,91.812,6.357,91.812s3.753,17.766,18.436,17.275
					C270.583,251.922,275.892,239.955,275.892,239.955z"/>
				<g>
					<path style="fill:#36776F;" d="M261.276,247.028c0,0-1.096-9.021-1.774-30.058c-0.678-21.037-0.572-54.265,1.21-71.825
						c1.782-17.56,5.348-36.728,1.989-36.342c-3.359,0.386-5.748,35.25-6.642,54.072c-0.893,18.822-1.196,67.827,1.405,83.252
						L261.276,247.028z"/>
					<path style="fill:#36776F;" d="M258.321,219.236c0,0,14.194-20.545,12.002-22.668c-2.192-2.123-12.289,17.805-12.289,17.805
						L258.321,219.236z"/>
					<path style="fill:#36776F;" d="M258.227,169.879c0,0,14.194-20.545,12.002-22.668c-2.192-2.123-12.289,17.805-12.289,17.805
						L258.227,169.879z"/>
					<path style="fill:#36776F;" d="M257.191,147.911c0,0-10.929-22.446-8.442-24.215c2.487-1.769,9.46,19.451,9.46,19.451
						L257.191,147.911z"/>
					<path style="fill:#36776F;" d="M255.985,201.662c0,0-10.929-22.446-8.442-24.215c2.487-1.769,9.46,19.451,9.46,19.451
						L255.985,201.662z"/>
				</g>
			</g>
		</g>
		<g>
			<g>
				<path style="fill:#36776F;" d="M153.371,274.219c0,0,6.77-45.489-3.572-96.168c-10.342-50.679-23.558-57.541-32.72-51.834
					s-17.579,40.338-15.984,69.251s17.918,79.698,17.918,79.698s5.681,15.083,18.495,12.675S153.371,274.219,153.371,274.219z"/>
				<g>
					<path style="fill:#2A6660;" d="M141.5,282.393c0,0-2.174-7.767-5.596-26.134c-3.422-18.366-7.795-47.534-8.592-63.181
						c-0.797-15.647-0.245-32.944-3.14-32.153s-0.305,31.701,1.441,48.336c1.746,16.634,8.068,59.671,12.423,72.855L141.5,282.393z"
						/>
					<path style="fill:#2A6660;" d="M135.172,258.407c0,0,9.691-19.937,7.482-21.504c-2.208-1.568-8.388,17.276-8.388,17.276
						L135.172,258.407z"/>
					<path style="fill:#2A6660;" d="M128.455,215.114c0,0,9.691-19.937,7.482-21.504c-2.208-1.568-8.388,17.276-8.388,17.276
						L128.455,215.114z"/>
					<path style="fill:#2A6660;" d="M124.593,195.979c0,0-12.605-18.223-10.66-20.109c1.944-1.887,10.913,15.792,10.913,15.792
						L124.593,195.979z"/>
					<path style="fill:#2A6660;" d="M130.76,243.302c0,0-12.605-18.223-10.66-20.109c1.944-1.887,10.913,15.792,10.913,15.792
						L130.76,243.302z"/>
				</g>
			</g>
			<g>
				<path style="fill:#36776F;" d="M74.33,303.189c0,0-24.183-16.465-43.409-43.166s-16.73-35.836-10.109-37.655
					c6.621-1.819,26.44,9.192,39.266,22.414c12.826,13.221,29.521,42.762,29.521,42.762s4.599,9.163-2.056,14.111
					C80.887,306.603,74.33,303.189,74.33,303.189z"/>
				<g>
					<path style="fill:#2A6660;" d="M83.273,301.169c0,0-2.693-4.367-9.801-13.892s-18.854-24.154-25.824-31.278
						c-6.97-7.124-15.293-14.33-13.674-15.342s14.949,13.537,21.971,21.531c7.022,7.994,24.41,29.518,28.693,37.242L83.273,301.169z
						"/>
					<path style="fill:#2A6660;" d="M74.792,287.862c0,0-13.5-4.075-13.28-5.783c0.22-1.708,11.695,3.536,11.695,3.536
						L74.792,287.862z"/>
					<path style="fill:#2A6660;" d="M57.455,266.042c0,0-13.5-4.075-13.28-5.783c0.22-1.708,11.695,3.536,11.695,3.536
						L57.455,266.042z"/>
					<path style="fill:#2A6660;" d="M50.177,255.981c0,0-3.078-13.753-4.799-13.658c-1.721,0.094,2.672,11.914,2.672,11.914
						L50.177,255.981z"/>
					<path style="fill:#2A6660;" d="M69.636,279.283c0,0-3.078-13.753-4.799-13.658c-1.721,0.094,2.672,11.914,2.672,11.914
						L69.636,279.283z"/>
				</g>
			</g>
			<g>
				<path style="fill:#428C81;" d="M100.689,307.342c0,0-33.539-39.488-53.795-94.128s-11.695-69.07,0.466-69.064
					c12.161,0.005,40.815,28.127,56.49,56.736s30.273,86.91,30.273,86.91s3.538,17.81-10.153,23.135
					C110.278,316.255,100.689,307.342,100.689,307.342z"/>
				<g>
					<path style="fill:#36776F;" d="M116.909,308.095c0,0-2.541-8.725-10.194-28.332c-7.653-19.608-20.821-50.115-29.367-65.558
						s-19.365-31.663-16.125-32.629c3.24-0.967,19.151,30.147,27.377,47.099s27.781,61.888,31.458,77.093L116.909,308.095z"/>
					<path style="fill:#36776F;" d="M108.693,281.381c0,0-21.131-13.305-19.951-16.119c1.18-2.814,18.302,11.535,18.302,11.535
						L108.693,281.381z"/>
					<path style="fill:#36776F;" d="M89.364,235.966c0,0-21.131-13.305-19.951-16.119c1.18-2.814,18.302,11.535,18.302,11.535
						L89.364,235.966z"/>
					<path style="fill:#36776F;" d="M81.674,215.362c0,0,1.218-24.936-1.765-25.584c-2.983-0.648-1.045,21.604-1.045,21.604
						L81.674,215.362z"/>
					<path style="fill:#36776F;" d="M103.928,264.305c0,0,1.218-24.936-1.765-25.584c-2.983-0.648-1.045,21.604-1.045,21.604
						L103.928,264.305z"/>
				</g>
			</g>
		</g>
		<g>
			<g>
				<path style="fill:#36776F;" d="M355.292,274.219c0,0-6.77-45.489,3.572-96.168s23.558-57.541,32.72-51.834
					s17.579,40.338,15.984,69.251c-1.595,28.913-17.918,79.698-17.918,79.698s-5.681,15.083-18.495,12.675
					S355.292,274.219,355.292,274.219z"/>
				<g>
					<path style="fill:#2A6660;" d="M367.164,282.393c0,0,2.174-7.767,5.596-26.134s7.795-47.534,8.592-63.181
						s0.245-32.944,3.14-32.153s0.305,31.701-1.441,48.336s-8.068,59.671-12.423,72.855L367.164,282.393z"/>
					<path style="fill:#2A6660;" d="M373.492,258.407c0,0-9.691-19.937-7.482-21.504s8.388,17.276,8.388,17.276L373.492,258.407z"/>
					<path style="fill:#2A6660;" d="M380.209,215.114c0,0-9.69-19.937-7.482-21.504c2.208-1.568,8.388,17.276,8.388,17.276
						L380.209,215.114z"/>
					<path style="fill:#2A6660;" d="M384.07,195.979c0,0,12.605-18.223,10.66-20.109c-1.944-1.887-10.913,15.792-10.913,15.792
						L384.07,195.979z"/>
					<path style="fill:#2A6660;" d="M377.904,243.302c0,0,12.605-18.223,10.66-20.109c-1.944-1.887-10.913,15.792-10.913,15.792
						L377.904,243.302z"/>
				</g>
			</g>
			<g>
				<path style="fill:#36776F;" d="M434.334,303.189c0,0,24.183-16.465,43.409-43.166c19.226-26.701,16.73-35.836,10.109-37.655
					c-6.621-1.819-26.44,9.192-39.266,22.414c-12.826,13.221-29.521,42.762-29.521,42.762s-4.599,9.163,2.056,14.111
					C427.776,306.603,434.334,303.189,434.334,303.189z"/>
				<g>
					<path style="fill:#2A6660;" d="M425.391,301.169c0,0,2.693-4.367,9.801-13.892s18.854-24.154,25.824-31.278
						c6.97-7.124,15.293-14.33,13.674-15.342s-14.949,13.537-21.971,21.531c-7.022,7.994-24.41,29.518-28.693,37.242
						L425.391,301.169z"/>
					<path style="fill:#2A6660;" d="M433.872,287.862c0,0,13.5-4.075,13.28-5.783c-0.22-1.708-11.695,3.536-11.695,3.536
						L433.872,287.862z"/>
					<path style="fill:#2A6660;" d="M451.209,266.042c0,0,13.5-4.075,13.28-5.783c-0.22-1.708-11.695,3.536-11.695,3.536
						L451.209,266.042z"/>
					<path style="fill:#2A6660;" d="M458.487,255.981c0,0,3.078-13.753,4.799-13.658c1.721,0.094-2.672,11.914-2.672,11.914
						L458.487,255.981z"/>
					<path style="fill:#2A6660;" d="M439.028,279.283c0,0,3.078-13.753,4.799-13.658s-2.672,11.914-2.672,11.914L439.028,279.283z"
						/>
				</g>
			</g>
			<g>
				<path style="fill:#428C81;" d="M407.974,307.342c0,0,33.539-39.488,53.795-94.128s11.695-69.07-0.466-69.064
					c-12.161,0.005-40.815,28.127-56.49,56.736s-30.273,86.91-30.273,86.91s-3.538,17.81,10.153,23.135
					C398.386,316.255,407.974,307.342,407.974,307.342z"/>
				<g>
					<path style="fill:#36776F;" d="M391.754,308.095c0,0,2.541-8.725,10.194-28.332c7.653-19.608,20.821-50.115,29.367-65.558
						s19.365-31.663,16.125-32.629c-3.24-0.967-19.151,30.147-27.377,47.099s-27.781,61.888-31.458,77.093L391.754,308.095z"/>
					<path style="fill:#36776F;" d="M399.97,281.381c0,0,21.131-13.305,19.951-16.119c-1.18-2.814-18.302,11.535-18.302,11.535
						L399.97,281.381z"/>
					<path style="fill:#36776F;" d="M419.3,235.966c0,0,21.132-13.305,19.951-16.119c-1.18-2.814-18.302,11.535-18.302,11.535
						L419.3,235.966z"/>
					<path style="fill:#36776F;" d="M426.989,215.362c0,0-1.218-24.936,1.765-25.584c2.983-0.648,1.045,21.604,1.045,21.604
						L426.989,215.362z"/>
					<path style="fill:#36776F;" d="M404.736,264.305c0,0-1.218-24.936,1.765-25.584c2.983-0.648,1.045,21.604,1.045,21.604
						L404.736,264.305z"/>
				</g>
			</g>
		</g>
	</g>
	<g>
		<g>
			<polygon style="fill:#56352F;" points="254.192,308.819 254.192,211.442 55.35,260.383 			"/>
			<polyline style="fill:#3D221F;" points="453.034,260.383 254.192,211.442 254.192,308.819 453.034,260.383 			"/>
		</g>
		<g>
			<g>
				<path style="fill:#895A4A;" d="M359.845,220.87c0,0,5.297,1.786,14.217-2.289c-1.77-2.343-3.423-4.749-4.93-7.139
					C366.058,214.974,362.727,218.502,359.845,220.87z"/>
				<path style="fill:#895A4A;" d="M373.724,243.813c0,0,10.342,1.645,19.971-4.654c-2.32-3.019-4.823-5.758-7.489-8.009
					C383.143,235.248,378.61,240.582,373.724,243.813z"/>
				<path style="fill:#E0AE6C;" d="M393.695,239.159c-9.629,6.3-19.971,4.654-19.971,4.654c4.886-3.231,9.42-8.566,12.482-12.664
					c-0.329-0.278-0.657-0.561-0.991-0.824c-3.338-2.621-6.424-5.828-9.234-9.276c-0.659-0.809-1.29-1.638-1.918-2.469
					c-8.92,4.075-14.217,2.289-14.217,2.289c2.883-2.368,6.213-5.896,9.287-9.428c-0.642-1.018-1.262-2.033-1.853-3.034
					c-11.359,0.709-29.863,0.959-47.765-2.744c-15.764-3.261-25.244-6.723-30.591-9.18c-2.423,13.132-4.791,34.601-1.328,59.46
					c5.738,41.198,12.402,53.956,12.402,53.956l16.668-4.945c-5.143-23.848-1.839-61.235-1.839-61.235l8.172-0.828
					c-1.109,20.239,3.084,49.157,4.613,58.816l23.936-7.101c5.59-17.639,10.822-53.709,10.822-53.709
					c2.677,13.466,4.471,36.614,5.288,48.93l27.063-8.029l17.739-5.262C412.46,276.535,405.403,254.397,393.695,239.159z"/>
				<path style="fill:#CE834A;" d="M367.278,208.407c-5.931-10.05-9.289-18.883-9.289-18.883l-65.858-6.711
					c0,0-1.616,5.037-3.209,13.67c5.347,2.457,14.827,5.919,30.591,9.18C337.416,209.366,355.919,209.116,367.278,208.407z"/>
				<path style="fill:#CE834A;" d="M351.548,294.605l16.11-4.779c-0.817-12.316-2.611-35.464-5.288-48.93
					C362.37,240.896,357.138,276.966,351.548,294.605z"/>
				<path style="fill:#CE834A;" d="M322.999,242.89l-8.172,0.828c0,0-3.304,37.387,1.839,61.235l10.947-3.247
					C326.083,292.047,321.889,263.13,322.999,242.89z"/>
			</g>
			<g>
				<path style="fill:#895A4A;" d="M429.185,200.398c0.579-3.305,1.367-6.324,2.322-8.759c0.444-1.132,0.982-2.34,1.568-3.598
					c-14.786,0.812-23.715-7.664-28.357-14.235c-1.905,4.441-3.334,9.361-4.164,14.584
					C405.856,194.206,415.719,202.092,429.185,200.398z"/>
				<path style="fill:#CE834A;" d="M433.075,188.041c4.654-9.984,12.587-23.379,4.663-31.102
					c-8.922-8.698-18.836-6.598-29.175,9.547c-1.436,2.243-2.722,4.7-3.845,7.32C409.361,180.377,418.289,188.853,433.075,188.041z"
					/>
				<path style="fill:#CE834A;" d="M414.402,245.918c5.897,17.769,3.226,32.169,3.226,32.169l18.695-8.498
					c1.816-10.359,1.052-21.682-1.619-30.599C426.488,245.953,419.185,246.635,414.402,245.918z"/>
				<path style="fill:#895A4A;" d="M407.31,230.446c0.401,0.777,0.818,1.551,1.254,2.32c2.539,4.477,4.43,8.909,5.838,13.151
					c4.784,0.717,12.086,0.035,20.302-6.927c-0.871-2.908-1.943-5.562-3.196-7.841c-0.515-0.935-0.963-1.985-1.354-3.12
					C420.737,232.365,412.924,232.027,407.31,230.446z"/>
				<path style="fill:#CE834A;" d="M429.185,200.398c-13.466,1.694-23.329-6.191-28.631-12.008
					c-2.089,13.141-0.425,28.16,6.756,42.056c5.614,1.581,13.427,1.919,22.844-2.417
					C427.602,220.627,427.602,209.434,429.185,200.398z"/>
			</g>
			<g>
				<g>
					<g>
						<path style="fill:#895A4A;" d="M292.652,54.023c9.87,6.377,13.797,18.236,15.289,25.034
							c-4.804,2.822-11.289,7.257-16.908,13.232C285.372,74.368,292.652,54.023,292.652,54.023z"/>
						<path style="fill:#CE834A;" d="M289.12,43.553c0,0,24.731,6.08,25.839,31.837c0,0-2.887,1.24-7.019,3.668
							c-1.492-6.798-5.419-18.657-15.289-25.034c0,0-7.28,20.345-1.62,38.266c-2.687,2.858-5.178,6.062-7.184,9.617
							C283.848,101.906,274.905,69.762,289.12,43.553z"/>
					</g>
					<g>
						<path style="fill:#E0AE6C;" d="M390.436,110.507c-4.81-17.779-15.923-35.442-50.804-40.901
							c-6.387,7.823-12.503,16.436-12.503,16.436c-0.639-5.469-0.352-12.148,0.093-17.449
							c-23.994,0.362-39.852,15.656-49.331,34.444c-10.575,20.961-13.982,48.332-9.351,59.525
							c4.63,11.193,14.275,25.178,53.857,30.569c39.582,5.391,61.957-8.518,67.264-19.848
							C394.968,161.954,395.415,128.912,390.436,110.507z"/>
						<path style="fill:#895A4A;" d="M327.129,86.043c0,0,6.116-8.613,12.503-16.436c-1.228-0.192-2.479-0.372-3.766-0.534
							c-2.994-0.375-5.87-0.521-8.644-0.48C326.777,73.894,326.49,80.573,327.129,86.043z"/>
					</g>
					<g>
						<path style="fill:#895A4A;" d="M389.492,63.382c-14.207,3.957-22.887,15.313-26.928,22.033
							c4.991,4.292,11.526,10.743,16.495,18.57C391.838,86.748,389.492,63.382,389.492,63.382z"/>
						<path style="fill:#CE834A;" d="M397.234,53.374c0,0-32.385-0.472-42.11,26.248c0,0,3.147,2.101,7.44,5.793
							c4.041-6.72,12.721-18.076,26.928-22.033c0,0,2.346,23.366-10.433,40.603c2.377,3.743,4.399,7.795,5.712,12.082
							C384.771,116.067,406.203,84.815,397.234,53.374z"/>
					</g>
				</g>
				<g>
					<g>
						<path style="fill:#3D221F;" d="M344.417,109.202c5.76,0.875,5.466,17.953-2.121,17.304
							C334.708,125.857,338.657,108.328,344.417,109.202z"/>
						<path style="fill:#3D221F;" d="M295.488,105.007c4.997,0.759,4.742,15.573-1.84,15.01
							C287.066,119.454,290.492,104.248,295.488,105.007z"/>
						<g>
							<path style="fill:#3D221F;" d="M314.523,126.756c7.487,0.791,10.955,4.318,10.801,6.698
								c-0.154,2.38-7.281,8.638-12.678,8.414c-5.397-0.224-10.608-10.557-9.109-12.585
								C305.036,127.254,308.601,126.13,314.523,126.756z"/>
							<path style="fill:#FFFFFF;" d="M314.021,130.379c1.8-2.896,9.762,1.065,8.165,4.215
								C320.589,137.744,312.221,133.275,314.021,130.379z"/>
						</g>
					</g>
					<g>
						<path style="fill:#FFFFFF;" d="M309.35,155.137c-1.264,0.214-2.708,0.292-4.357,0.151l2.592,6.852L309.35,155.137z"/>
						<path style="fill:#FFFFFF;" d="M328.354,157.129c-1.265,0.125-2.573,0.085-3.871-0.19l1.23,5.624L328.354,157.129z"/>
						<path style="fill:#3D221F;" d="M338.105,153.383c0,0-4.507,3.229-9.751,3.745l-2.641,5.434l-1.23-5.624
							c-2.813-0.596-5.581-2.317-7.763-6.031c0,0-2.067,3.331-7.369,4.23l-1.766,7.002l-2.592-6.852
							c-1.301-0.112-2.719-0.35-4.277-0.77c0,0,0.501,8.328,6.267,13.492c10.548-6.557,19.572-2.601,23.469-0.168
							C336.954,162.352,338.105,153.383,338.105,153.383z"/>
						<path style="fill:#C18B5B;" d="M306.983,168.01c2.657,2.379,6.43,4.088,11.79,3.999c5.108-0.085,8.884-1.807,11.679-4.166
							C326.555,165.409,317.531,161.453,306.983,168.01z"/>
					</g>
					<g>
						<path style="fill:#3D221F;" d="M350.144,141.815c-0.394,0-0.776-0.211-0.975-0.583c-0.289-0.538-0.086-1.208,0.451-1.497
							c0.572-0.307,14.191-7.461,29.196-2.482c0.58,0.192,0.894,0.818,0.702,1.397c-0.193,0.579-0.818,0.893-1.397,0.701
							c-14.115-4.684-27.325,2.261-27.455,2.332C350.499,141.773,350.32,141.815,350.144,141.815z"/>
						<path style="fill:#3D221F;" d="M349.796,148.647c-0.385-0.085-0.712-0.373-0.826-0.779c-0.167-0.588,0.176-1.198,0.763-1.364
							c0.625-0.177,15.466-4.226,29.044,3.871c0.525,0.313,0.697,0.991,0.384,1.516c-0.314,0.524-0.992,0.695-1.515,0.383
							c-12.773-7.617-27.169-3.684-27.312-3.642C350.152,148.683,349.968,148.685,349.796,148.647z"/>
					</g>
					<g>
						<path style="fill:#3D221F;" d="M281.366,133.572c0.292,0.052,0.61-0.098,0.82-0.425c0.304-0.472,0.266-1.134-0.083-1.478
							c-0.372-0.366-9.259-8.931-21.205-6.176c-0.462,0.106-0.799,0.658-0.754,1.233c0.046,0.574,0.456,0.954,0.917,0.848
							c11.238-2.592,19.856,5.721,19.941,5.806C281.11,133.485,281.235,133.549,281.366,133.572z"/>
						<path style="fill:#3D221F;" d="M280.478,140.094c0.299-0.03,0.59-0.261,0.743-0.631c0.222-0.536,0.07-1.159-0.337-1.393
							c-0.433-0.249-10.745-6.031-22.158-0.133c-0.441,0.228-0.682,0.849-0.538,1.387c0.144,0.538,0.618,0.789,1.058,0.562
							c10.736-5.549,20.738,0.065,20.837,0.123C280.209,140.081,280.345,140.108,280.478,140.094z"/>
					</g>
				</g>
			</g>
		</g>
		<g>
			<g>
				<path style="fill:#EACD83;" d="M219.687,186.56c-5.072,2.983-14.155,7.383-29.51,12.216
					c-17.439,5.488-35.873,7.104-47.246,7.543c-2.037,4.416-4.501,9.082-7.383,13.455c3.263,8.09,6.492,20.407,3.644,33.669
					c-3.204,14.921-9.308,22.916-16.169,28.657l27.735,5.261c-0.428-12.336-0.976-35.546,0.331-49.214
					c0,0,8.84,35.359,16.179,52.345l24.53,4.653c0.548-9.764,1.806-38.957-1.337-58.981h8.214c0,0,7.055,36.864,4.341,61.109
					l17.081,3.24c0,0,5.345-13.364,6.902-54.931C227.94,220.503,223.421,199.381,219.687,186.56z"/>
				<path style="fill:#C18B5B;" d="M139.192,253.444c2.848-13.262-0.381-25.579-3.644-33.669c-2.448,3.713-5.195,7.215-8.252,10.159
					c-15.296,14.729-22.451,48.719-22.451,48.719l18.179,3.448C129.884,276.36,135.988,268.365,139.192,253.444z"/>
				<path style="fill:#E0AE6C;" d="M219.687,186.56c-2.454-8.428-4.57-13.277-4.57-13.277l-64.847,13.313
					c0,0-2.451,9.126-7.339,19.723c11.373-0.44,29.807-2.055,47.246-7.543C205.532,193.944,214.615,189.543,219.687,186.56z"/>
				<path style="fill:#E0AE6C;" d="M150.758,287.362l16.51,3.132c-7.339-16.986-16.179-52.345-16.179-52.345
					C149.782,251.816,150.33,275.026,150.758,287.362z"/>
				<path style="fill:#E0AE6C;" d="M198.675,236.165h-8.214c3.143,20.024,1.885,49.217,1.337,58.981l11.218,2.128
					C205.73,273.029,198.675,236.165,198.675,236.165z"/>
			</g>
			<path style="fill:#E0AE6C;" d="M97.837,274.971c0,0-5.948-8.922-5.099-23.51c0.85-14.587,8.556-22.802,2.508-26.059
				c-6.048-3.257-9.022,10.764-9.022,10.764s-1.558-9.064-8.781-5.948c-7.223,3.116,0,19.724,0,19.724s-6.232-8.535-10.197-2.445
				c-3.966,6.09,6.232,20.677,6.232,20.677L97.837,274.971z"/>
			<g>
				<g>
					<path style="fill:#895A4A;" d="M206.323,77.734c0,0,7.081-7.176,22.282,5.287s21.433,32.668,21.905,44.376
						c0.472,11.708-10.39,17.939-10.39,17.939L206.323,77.734z"/>
					<g>
						<path style="fill:#C18B5B;" d="M240.12,125.545c-3.487-14.58-10.1-26.508-20.022-38.748
							c-9.506-11.726-17.232-17.634-34.331-17.724c3.191,12.983,10.139,35.736,21.689,46.993
							C219.265,127.576,233.046,126.92,240.12,125.545z"/>
						<path style="fill:#EACD83;" d="M240.12,125.545c-7.074,1.375-20.855,2.031-32.664-9.478
							c-11.551-11.257-18.498-34.01-21.689-46.993c-4.793-0.025-10.322,0.406-16.833,1.295c-2.481,0.339-4.881,0.713-7.199,1.127
							c4.093,8.213,9.758,21.575,11.164,34.94c2.266,21.527-3.682,28.467-18.695,40.505c-12.308,9.87-25.669,15.16-42.023,15.189
							c0.256,3.752,0.771,6.78,1.613,8.699c4.721,10.764,32.941,32.188,78.974,17.086s51.793-32.476,49.244-52.02
							C241.541,132.285,240.91,128.848,240.12,125.545z"/>
						<path style="fill:#C18B5B;" d="M154.204,146.941c15.012-12.038,20.961-18.978,18.695-40.505
							c-1.407-13.366-7.071-26.727-11.164-34.94c-22.084,3.943-36.668,11.507-41.709,26.632
							c-4.578,13.733-9.023,46.705-7.844,64.002C128.535,162.102,141.896,156.811,154.204,146.941z"/>
					</g>
					<g>
						<g>
							<path style="fill:#FFFFFF;" d="M110.867,109.3c-3.895-1.376-8.427,8.396-4.532,10.166
								C110.23,121.236,114.762,110.676,110.867,109.3z"/>
							<path style="fill:#FFFFFF;" d="M105.836,123.715c4.021,1.363,0.634,9.631,0,18.836s-1.342,13.879-5.025,14.446
								c-3.682,0.566-6.09-5.24-4.532-16.641C97.837,128.955,101.868,122.369,105.836,123.715z"/>
						</g>
						<path style="fill:#895A4A;" d="M121.536,92.849c10.689,1.689,6.137,15.33,8.875,27.535
							c2.738,12.205,0.127,31.762-5.554,40.584c-5.681,8.822-22.771,7.701-31.646,0c-8.875-7.701-4.249-24.319,1.133-38.67
							C99.726,107.947,111.434,91.253,121.536,92.849z"/>
					</g>
				</g>
				<g>
					<g>
						<path style="fill:#C18B5B;" d="M188.357,161.915c3.302,3.631,8.47,6.669,16.407,5.987c4.768-0.41,8.066-2.286,10.352-4.819
							C204.849,156.093,194.781,158.694,188.357,161.915z"/>
						<path style="fill:#3D221F;" d="M219.919,143.684c0,0-7.435,10.197-17.42,1.416c0,0-0.283,6.232-7.789,8.498
							c-7.506,2.266-11.755-1.983-11.755-1.983s1.164,5.639,5.403,10.3c6.424-3.221,16.492-5.823,26.76,1.168
							C221.524,155.985,219.919,143.684,219.919,143.684z"/>
					</g>
					<path style="fill:#3D221F;" d="M158.736,109.411c-5.594,1.629-3.045,18.518,4.39,16.871
						C170.562,124.635,164.331,107.782,158.736,109.411z"/>
					<path style="fill:#3D221F;" d="M208.177,97.774c-4.853,1.413-2.641,16.063,3.808,14.635
						C218.435,110.98,213.029,96.361,208.177,97.774z"/>
					<g>
						<path style="fill:#3D221F;" d="M196.126,121.307c-8.863,2.149-12.463,6.94-11.897,9.772s10.126,9.206,16.57,8.073
							c6.444-1.133,11.047-14.375,8.922-16.57C207.597,120.387,203.136,119.608,196.126,121.307z"/>
						<path style="fill:#FFFFFF;" d="M197.308,125.578c-2.626-3.189-11.551,2.842-9.128,6.369
							C190.602,135.473,199.934,128.767,197.308,125.578z"/>
					</g>
				</g>
			</g>
		</g>
		<g>
			<g>
				<g>
					<g>
						<polygon style="fill:#72463B;" points="222.468,348.758 55.35,302.473 55.35,320.288 228.416,370.001 254.192,337.502 
							254.192,308.819 						"/>
						<polygon style="fill:#895A4A;" points="55.35,320.288 55.35,365.186 254.192,420.987 254.192,337.502 228.416,370.001 						
							"/>
					</g>
				</g>
				<g>
					<g>
						<polygon style="fill:#56352F;" points="285.916,348.758 453.034,302.473 453.034,320.288 279.968,370.001 254.192,337.502 
							254.192,308.819 						"/>
						<polygon style="fill:#72463B;" points="453.034,320.288 453.034,365.186 254.192,420.987 254.192,337.502 279.968,370.001 
													"/>
					</g>
				</g>
			</g>
			<polygon style="fill:#895A4A;" points="55.35,260.383 30.707,295.648 222.468,348.758 254.192,308.819 			"/>
			<polygon style="fill:#72463B;" points="453.034,260.383 477.677,295.648 285.916,348.758 254.192,308.819 			"/>
		</g>
	</g>
	<g>
		<g>
			<path style="fill:#CE834A;" d="M456.431,360.065c-1.335-4.923-35.958-5.91-35.958-5.91s7.427-25.738,9.656-39.682
				c0.792-4.953,0.934-8.431-0.154-8.721c-4.149-1.108-10.046,5.027-32.011,19.186c-21.965,14.159-58.001,24.675-58.001,24.675
				s47.039,56.755,60.816,51.262c2.746-1.095,6.671-3.189,11.17-5.863C430.022,384.267,457.5,364.007,456.431,360.065z"/>
			<path style="fill:#CE834A;" d="M107.651,327.511c-22.581-13.969-27.048-25.897-31.017-23.276
				c-0.005,0.003-0.01,0.005-0.015,0.008c-3.972,2.66,0.302,36.826,4.78,45.261c0,0-29.071,3.594-29.42,10.302
				c-0.271,5.201,19.223,27.271,36.274,38.119c4.937,3.141,9.671,5.349,13.659,5.924c17.761,2.563,64.015-50.635,64.015-50.635
				S130.26,341.498,107.651,327.511z"/>
			<path style="fill:#E0AE6C;" d="M407.794,355.938c0,0-64.16-11.807-67.83-6.327c-3.671,5.48,3.274,33.003,3.274,33.003
				L407.794,355.938z"/>
			<path style="fill:#E0AE6C;" d="M160.953,385.039c0,0,7.004-28.314,4.975-31.826c-2.029-3.512-64.253-2.91-70.247,2.756
				c-5.994,5.665,0.74,28.405,0.74,28.405L160.953,385.039z"/>
			<path style="fill:#EACD83;" d="M73.232,418.987c-3.02-7.213,12.626-61.828,22.448-63.018c9.822-1.19,55.701,31.037,152.5,32.034
				s150.616-35.662,159.614-32.065s25.045,49.753,21.33,59.506s-100.133,47.741-178.35,46.935S79.42,433.766,73.232,418.987z"/>
		</g>
		<path id="SVGID_x5F_1_x5F_" style="fill:none;" d="M91.487,405.268c0,0,167.167,67.595,319.32-1.62"/>
		<text>		<textPath  xlink:href="#SVGID_x5F_1_x5F_" startOffset="0.977%">
		<tspan x='60' style="fill:#56352F; font-family:'Vanilla'; font-size:35.6242px;">Adote um pet</tspan>		</textPath>
</text>
	</g>
</g>
</svg>
