<?xml version="1.0" encoding="utf-8"?>
<!-- Generator: Adobe Illustrator 27.5.0, SVG Export Plug-In . SVG Version: 6.00 Build 0)  -->
<svg version="1.1" xmlns="http://www.w3.org/2000/svg" xmlns:xlink="http://www.w3.org/1999/xlink" x="0px" y="0px"
	 viewBox="0 0 500 500" style="enable-background:new 0 0 500 500;" xml:space="preserve">
<g id="BACKGROUND">
	<rect x="0.46" y="0" style="fill-rule:evenodd;clip-rule:evenodd;fill:none;" width="500" height="500"/>
</g>
<g id="OBJECTS">
	<text transform="matrix(1 0 0 1 38.4663 195.2305)" style="fill:#FFFFFF; font-family:'Montserrat-Black'; font-size:117.6167px;">ADOPT</text>
	<g>
		<g>
			<path style="opacity:0.15;fill-rule:evenodd;clip-rule:evenodd;" d="M356.113,406.793c40.776,0,73.831,8.197,73.831,18.309
				c0,10.112-33.055,18.309-73.831,18.309c-40.775,0-73.831-8.197-73.831-18.309C282.283,414.991,315.338,406.793,356.113,406.793z"
				/>
			<g>
				
					<path style="fill-rule:evenodd;clip-rule:evenodd;fill:none;stroke:#21799E;stroke-width:14.3997;stroke-linecap:round;stroke-linejoin:round;stroke-miterlimit:22.9256;" d="
					M327.832,406.69c-38.915,3.356-58.705-11.741-56.552-34.078c2.159-22.405,26.629-32.47,27.596-52.581
					c0.883-18.365-18.943-30.856-29.978-31.951"/>
				<g>
					<path style="fill-rule:evenodd;clip-rule:evenodd;fill:#419DC4;" d="M330.528,395.21c-9.747-0.7-30.463,7.358-36.656,14.784
						c-7.262,8.707-2.424,17.808,5.386,13.975c3.011,2.911,6.94,1.788,12.031,1.012c4.653,1.729,10.116,0.041,13.57-5.726
						c7.469,0.818,16.182-7.521,25.112-8.855C366.439,407.938,343.877,396.168,330.528,395.21z"/>
					<path style="fill-rule:evenodd;clip-rule:evenodd;fill:#419DC4;" d="M383.911,395.21c9.747-0.7,30.463,7.358,36.656,14.784
						c7.262,8.707,2.423,17.808-5.386,13.975c-3.012,2.911-6.941,1.788-12.031,1.012c-4.653,1.729-10.116,0.041-13.569-5.726
						c-7.469,0.818-16.182-7.521-25.112-8.855C348,407.938,370.562,396.168,383.911,395.21z"/>
				</g>
				<path style="fill-rule:evenodd;clip-rule:evenodd;fill:#2D8BB3;" d="M396.579,330.124c0.38,9.527,21.024,36.457,16.684,55.765
					c-10.998,48.918-101.58,48.895-113.059,0c-4.524-19.268,16.872-48.305,16.912-57.722c0.053-12.71,15.16-17.999,37.745-18.971
					c0.64-0.027,1.264,0.055,1.873,0.218c0.609-0.162,1.233-0.245,1.874-0.218C381.191,310.169,396.073,317.422,396.579,330.124z"/>
				<path style="fill-rule:evenodd;clip-rule:evenodd;fill:#18698C;" d="M356.719,336.786c22.624,0,40.964,20.412,40.964,45.59
					c0,14.485-6.071,27.39-15.534,35.742c-15.969,6.012-35.194,5.926-51.136-0.247c-9.305-8.357-15.259-21.151-15.259-35.495
					C315.754,357.198,334.095,336.786,356.719,336.786z"/>
				<path style="fill-rule:evenodd;clip-rule:evenodd;fill:#419DC4;" d="M315.313,339.733c3.971,27.2,15.632,66.81,15.632,74.789
					c0,5.802-4.322,7.841-6.479,11.537c-1.884,3.228-1.28,7.093,2.861,7.783c0.588,3.517,7.761,5.97,11.235,3.528
					c3.667,2.415,10.431-1.258,12.377-6.124c6.045-15.12-9.955-72.349-4.902-79.963c4.753-7.164,16.683-7.164,21.436,0
					c5.053,7.615-10.982,64.844-4.937,79.963c1.945,4.867,8.71,8.54,12.377,6.124c3.474,2.442,10.647-0.01,11.235-3.528
					c4.141-0.69,4.745-4.556,2.861-7.783c-2.157-3.696-6.479-5.735-6.479-11.537c0-7.979,12.94-48.549,16.911-75.748
					C410.265,264.644,304.491,265.603,315.313,339.733z"/>
				<path style="fill-rule:evenodd;clip-rule:evenodd;fill:#FFFFFF;" d="M355.953,273.723c13.879,0,25.958,3.96,32.2,9.802v18.155
					c-13.308,18.904-49.83,18.97-64.4,0v-18.156C329.996,277.683,342.075,273.723,355.953,273.723z"/>
				<path style="fill-rule:evenodd;clip-rule:evenodd;fill:#2D8BB3;" d="M305.633,247.114c-5.484-13.306-7.942-35.298-7.082-49.188
					c0.339-5.476,3.38-7.299,8.756-5.255c11.407,4.336,31.833,16.683,38.808,26.957c1.859,2.738,1.811,6.178-0.125,8.863
					c-5.566,7.719-20.234,19.493-30.759,23.009C311.368,252.79,307.185,250.878,305.633,247.114z"/>
				<path style="fill-rule:evenodd;clip-rule:evenodd;fill:#18698C;" d="M312.714,241.212c-3.374-8.187-4.887-23.246-4.358-31.793
					c0.209-3.37,2.08-4.491,5.388-3.234c7.019,2.668,20.975,10.682,25.267,17.003c1.144,1.685,1.114,3.802-0.077,5.454
					c-3.425,4.749-13.839,13.105-20.315,15.268C316.243,244.705,313.668,243.529,312.714,241.212z"/>
				<path style="fill-rule:evenodd;clip-rule:evenodd;fill:#2D8BB3;" d="M406.274,247.114c5.484-13.306,7.942-35.298,7.082-49.188
					c-0.339-5.476-3.38-7.299-8.756-5.255c-11.406,4.336-31.833,16.683-38.808,26.957c-1.859,2.738-1.811,6.178,0.125,8.863
					c5.566,7.719,20.234,19.493,30.759,23.009C400.539,252.79,404.722,250.878,406.274,247.114z"/>
				<path style="fill-rule:evenodd;clip-rule:evenodd;fill:#18698C;" d="M399.193,241.212c3.374-8.187,4.887-23.246,4.358-31.793
					c-0.209-3.37-2.08-4.491-5.388-3.234c-7.019,2.668-20.975,10.682-25.267,17.003c-1.144,1.685-1.114,3.802,0.077,5.454
					c3.425,4.749,13.839,13.105,20.315,15.268C395.664,244.705,398.239,243.529,399.193,241.212z"/>
				<path style="fill-rule:evenodd;clip-rule:evenodd;fill:#419DC4;" d="M356.914,214.697c31.187,0,55.51,29.696,55.51,55.542
					c0,25.847-24.85,37.273-56.036,37.273c-31.187,0-56.904-11.426-56.904-37.273C299.483,244.393,325.727,214.697,356.914,214.697z
					"/>
				<path style="fill-rule:evenodd;clip-rule:evenodd;fill:#84CCEB;" d="M308.621,292.767c9.32-21.64,27.656-39.418,48.256-39.417
					c20.561,0,37.99,17.713,46.786,39.299c-9.909,10.172-27.291,14.864-47.275,14.864
					C336.482,307.512,318.806,302.856,308.621,292.767z"/>
				<path style="fill-rule:evenodd;clip-rule:evenodd;fill:#333333;" d="M351.099,260.242c1.41-1.341,7.733-1.93,9.752,0
					c1.401,1.34-2.237,7.348-4.981,7.348C353.127,267.592,349.608,261.661,351.099,260.242z"/>
				<g>
					
						<path style="fill-rule:evenodd;clip-rule:evenodd;fill:none;stroke:#333333;stroke-width:3.1198;stroke-linecap:round;stroke-linejoin:round;stroke-miterlimit:22.9256;" d="
						M332.75,251.304c2.731-4.756,10.607-4.835,12.907,0"/>
					
						<path style="fill-rule:evenodd;clip-rule:evenodd;fill:none;stroke:#333333;stroke-width:3.1198;stroke-linecap:round;stroke-linejoin:round;stroke-miterlimit:22.9256;" d="
						M381.163,251.304c-2.731-4.756-10.607-4.835-12.907,0"/>
				</g>
				<path style="fill-rule:evenodd;clip-rule:evenodd;fill:#18698C;" d="M324.001,431.755c0.594,1.038,1.681,1.813,3.326,2.088
					c0.588,3.517,7.761,5.969,11.235,3.527c3.667,2.415,10.431-1.258,12.377-6.124c-0.674,1.286-2.052,3.301-4.624,4.516
					c-2.709,1.279-6.618,1.628-7.307-2.53c-1.903,6.483-11.81,3.399-10.452-2.557C327.302,433.56,324.778,432.588,324.001,431.755z"
					/>
				<path style="fill-rule:evenodd;clip-rule:evenodd;fill:#18698C;" d="M389.476,431.755c-0.594,1.038-1.681,1.813-3.326,2.088
					c-0.588,3.517-7.761,5.969-11.235,3.527c-3.667,2.415-10.431-1.258-12.377-6.124c0.674,1.286,2.052,3.301,4.624,4.516
					c2.709,1.279,6.618,1.628,7.307-2.53c1.902,6.483,11.81,3.399,10.452-2.557C386.175,433.56,388.699,432.588,389.476,431.755z"/>
				<path style="fill-rule:evenodd;clip-rule:evenodd;fill:#18698C;" d="M423.961,420.322c-0.205,4.166-4.529,6.519-8.78,3.647
					c-1.678,3.984-7.94,3.897-12.031,1.013c-4.875,2.691-10.491,0.941-13.57-5.726c1.831,2.738,8.81,9.337,13.663,3.061
					c2.2,4.962,11.682,3.092,11.747,0.004C418.534,425.648,422.935,423.607,423.961,420.322z"/>
				<path style="fill-rule:evenodd;clip-rule:evenodd;fill:#18698C;" d="M290.479,420.322c0.205,4.166,4.529,6.519,8.78,3.647
					c1.678,3.984,7.94,3.897,12.031,1.013c4.875,2.691,10.491,0.941,13.57-5.726c-1.831,2.738-8.81,9.337-13.663,3.061
					c-2.2,4.962-11.682,3.092-11.747,0.004C295.906,425.648,291.505,423.607,290.479,420.322z"/>
				<g>
					
						<path style="fill-rule:evenodd;clip-rule:evenodd;fill:none;stroke:#333333;stroke-width:1.9199;stroke-linecap:round;stroke-linejoin:round;stroke-miterlimit:22.9256;" d="
						M377.032,267.604c14.427,1.576,27.575,5.799,40.188,11.128 M377.233,262.335c12.625-5.105,26.389-7.693,40.939-8.545
						 M377.133,264.969c14.051-1.957,27.52-1.292,40.564,1.292"/>
					
						<path style="fill-rule:evenodd;clip-rule:evenodd;fill:none;stroke:#333333;stroke-width:1.9199;stroke-linecap:round;stroke-linejoin:round;stroke-miterlimit:22.9256;" d="
						M334.875,267.604c-14.427,1.576-27.575,5.799-40.188,11.128 M334.674,262.335c-12.625-5.105-26.389-7.693-40.939-8.545
						 M334.774,264.969c-14.051-1.957-27.52-1.292-40.564,1.292"/>
				</g>
				<g>
					<path style="fill-rule:evenodd;clip-rule:evenodd;fill:#84CCEB;" d="M356.914,214.696c0.537,0,1.071,0.011,1.604,0.028
						c-0.28,17.019-1.698,29.967-3.406,29.967c-1.699,0-3.112-12.821-3.402-29.715C353.426,214.795,355.162,214.696,356.914,214.696
						z"/>
					<path style="fill-rule:evenodd;clip-rule:evenodd;fill:#84CCEB;" d="M362.482,215.016c1.978,0.226,3.922,0.569,5.828,1.021
						c-0.62,7.509-1.675,12.453-2.874,12.453C364.184,228.49,363.088,223.095,362.482,215.016z"/>
					<path style="fill-rule:evenodd;clip-rule:evenodd;fill:#84CCEB;" d="M341.994,216.971c1.869-0.572,3.772-1.043,5.705-1.407
						c-0.614,7.774-1.689,12.926-2.912,12.926C343.64,228.49,342.623,223.953,341.994,216.971z"/>
				</g>
				<path style="fill-rule:evenodd;clip-rule:evenodd;fill:#84CCEB;" d="M346.038,351.283c4.754-7.164,16.683-7.164,21.436,0
					C362.844,325.513,346.73,338.151,346.038,351.283z"/>
				<g>
					<path style="fill-rule:evenodd;clip-rule:evenodd;fill:#6BBADB;" d="M299.581,379.792c0.018-1.685,0.172-3.414,0.439-5.172
						c7.316,0.583,11.918,1.466,11.925,2.483C311.952,378.143,307.164,379.107,299.581,379.792z"/>
					<path style="fill-rule:evenodd;clip-rule:evenodd;fill:#6BBADB;" d="M301.392,389.975c-0.456-1.323-0.859-2.682-1.188-4.085
						c-0.072-0.308-0.137-0.619-0.196-0.932c5.821,0.594,9.497,1.495,9.504,2.527C309.517,388.435,306.416,389.316,301.392,389.975z
						"/>
					<path style="fill-rule:evenodd;clip-rule:evenodd;fill:#6BBADB;" d="M301.116,369.345c0.405-1.567,0.876-3.146,1.399-4.724
						c4.266,0.577,6.851,1.351,6.857,2.217C309.377,367.796,306.22,368.685,301.116,369.345z"/>
				</g>
				<g>
					<path style="fill-rule:evenodd;clip-rule:evenodd;fill:#84CCEB;" d="M399.568,337.76c0.309-2.331,0.503-4.586,0.586-6.766
						c-16.493,0.432-28.898,1.911-28.887,3.583C371.279,336.228,383.387,337.526,399.568,337.76z"/>
					<path style="fill-rule:evenodd;clip-rule:evenodd;fill:#84CCEB;" d="M397.871,347.988c0.431-2.252,0.823-4.455,1.167-6.589
						c-11.599,0.502-20.055,1.883-20.045,3.451C379.004,346.362,386.894,347.594,397.871,347.988z"/>
					<path style="fill-rule:evenodd;clip-rule:evenodd;fill:#84CCEB;" d="M400.193,327.413c-0.042-2.322-0.203-4.557-0.49-6.695
						c-12.011,0.472-20.861,1.88-20.85,3.484C378.865,325.825,387.952,327.125,400.193,327.413z"/>
				</g>
				<path style="opacity:0.2;fill-rule:evenodd;clip-rule:evenodd;fill:#FFFFFF;" d="M355.953,259.323
					c2.073,0,3.753,0.443,3.753,0.99c0,0.547-1.68,0.991-3.753,0.991c-2.072,0-3.753-0.444-3.753-0.991
					C352.201,259.766,353.881,259.323,355.953,259.323z"/>
				
					<line style="fill-rule:evenodd;clip-rule:evenodd;fill:none;stroke:#333333;stroke-width:2.3998;stroke-linecap:round;stroke-linejoin:round;stroke-miterlimit:22.9256;" x1="355.953" y1="263.298" x2="355.953" y2="271.163"/>
				
					<path style="fill-rule:evenodd;clip-rule:evenodd;fill:none;stroke:#333333;stroke-width:3.1198;stroke-linecap:round;stroke-linejoin:round;stroke-miterlimit:22.9256;" d="
					M346.162,264.971c2.731,8.324,16.852,8.187,19.583,0"/>
			</g>
		</g>
		<g>
			<ellipse style="opacity:0.15;fill-rule:evenodd;clip-rule:evenodd;" cx="160.915" cy="423.582" rx="79.961" ry="19.829"/>
			<g>
				<path style="fill-rule:evenodd;clip-rule:evenodd;fill:#D15D46;" d="M88.737,346.137c-15.601-9.22-21.963-39.785-14.643-48.475
					c9.2-10.921-1.823,15.98,28.881,30.031C127.453,338.896,105.137,355.828,88.737,346.137z"/>
				<g>
					<path style="fill-rule:evenodd;clip-rule:evenodd;fill:#A64733;" d="M213.555,307.773c30.186,2.806,34.851,59.221,5.84,95.714
						c8.923,2.876,14.153,4.987,18.708,9.219c6.104,5.672,4.553,11.72-3.618,11.923c1.15,6.234-12.418,7.212-13.765,3.934
						c-0.721,2.497-3.738,4.553-10.125,2.113c-6.387-2.44-5.499-12.258-10.087-14.224c-4.588-1.966-10.268,0.182-16.223-12.484
						C178.331,391.3,171.911,303.902,213.555,307.773z"/>
					<path style="fill-rule:evenodd;clip-rule:evenodd;fill:#A64733;" d="M108.272,307.773c-30.186,2.806-34.851,59.221-5.84,95.714
						c-8.923,2.876-14.153,4.987-18.708,9.219c-6.104,5.672-4.553,11.72,3.618,11.923c-1.15,6.234,12.418,7.212,13.765,3.934
						c0.721,2.497,3.738,4.553,10.125,2.113c6.387-2.44,5.499-12.258,10.087-14.224c4.588-1.966,10.268,0.182,16.223-12.484
						C143.497,391.3,149.916,303.902,108.272,307.773z"/>
					<path style="fill-rule:evenodd;clip-rule:evenodd;fill:#87392A;" d="M80.388,417.387c-2.29,4.438,1.6,8.725,6.954,7.242
						c-0.84,6.225,11.451,7.587,13.765,3.933c1.699,5.678,13.095,3.978,14.99-3.108c-2.805,2.766-12.035,8.091-14.167,0.34
						c-3.421,5.342-15.804,1.157-13.113-3.864C84.473,424.63,79.577,421.799,80.388,417.387z"/>
					<path style="fill-rule:evenodd;clip-rule:evenodd;fill:#87392A;" d="M241.44,417.387c2.29,4.438-1.6,8.725-6.955,7.242
						c0.84,6.225-11.451,7.587-13.765,3.933c-1.699,5.678-13.095,3.978-14.991-3.108c2.805,2.766,12.035,8.091,14.167,0.34
						c3.421,5.342,15.804,1.157,13.113-3.864C237.355,424.63,242.251,421.799,241.44,417.387z"/>
				</g>
				<path style="fill-rule:evenodd;clip-rule:evenodd;fill:#A64733;" d="M209.41,286.967c0.456,13.288,24.641,56.421,19.426,83.349
					c-13.214,68.224-122.05,68.192-135.842,0c-5.435-26.872,20.892-72.944,20.939-86.078
					C114.062,248.221,208.095,248.612,209.41,286.967z"/>
				<path style="fill-rule:evenodd;clip-rule:evenodd;fill:#ED8470;" d="M160.914,301.832c20.54,0,37.191,24.253,37.191,54.17
					c0,17.211-5.512,32.545-14.103,42.467c-14.498,7.143-31.952,7.041-46.425-0.293c-8.448-9.93-13.853-25.132-13.853-42.174
					C123.723,326.085,140.374,301.832,160.914,301.832z"/>
				<path style="fill-rule:evenodd;clip-rule:evenodd;fill:#D15D46;" d="M103.602,315.013c4.942,34.072,25.031,83.073,25.031,93.067
					c0,7.268-5.38,9.822-8.064,14.453c-2.345,4.043-1.593,8.885,3.561,9.75c0.732,4.406,9.66,7.478,13.984,4.419
					c4.564,3.026,12.983-1.575,15.406-7.672c7.524-18.941-12.391-90.629-6.102-100.168c5.917-8.974,20.764-8.974,26.682,0
					c6.289,9.54-13.669,81.228-6.145,100.168c2.422,6.097,10.841,10.697,15.405,7.672c4.324,3.059,13.252-0.013,13.984-4.419
					c5.154-0.865,5.906-5.707,3.561-9.75c-2.684-4.63-8.064-7.184-8.064-14.453c0-9.995,20.442-61.435,25.384-95.507
					C231.695,219.713,90.132,222.153,103.602,315.013z"/>
				<path style="fill-rule:evenodd;clip-rule:evenodd;fill:#FFFFFF;" d="M160.915,236.019c18.73,0,35.031,5.309,43.455,13.141v24.34
					c-17.96,25.343-67.246,25.432-86.91,0.001V249.16C125.884,241.328,142.185,236.019,160.915,236.019z"/>
				<path style="fill-rule:evenodd;clip-rule:evenodd;fill:#D15D46;" d="M162.012,177.246c35.601,0,63.366,33.899,63.366,63.404
					c0,29.505-28.367,42.549-63.967,42.549c-35.601,0-64.958-13.044-64.958-42.549C96.452,211.145,126.41,177.246,162.012,177.246z"
					/>
				<g>
					<path style="fill-rule:evenodd;clip-rule:evenodd;fill:#A64733;" d="M124.398,181.724
						c-20.352,7.561-42.117,24.075-49.227,35.451c-7.11,11.376,8.168,58.428,17.775,48.349c9.606-10.08,27.788-71.498,36.557-78.152
						C138.272,180.717,129.723,179.554,124.398,181.724z"/>
					<path style="fill-rule:evenodd;clip-rule:evenodd;fill:#A64733;" d="M197.433,181.724
						c20.352,7.561,42.117,24.075,49.227,35.451c7.11,11.376-8.567,57.268-17.775,48.349c-9.208-8.919-25.385-74.194-35.12-78.791
						C184.029,182.136,192.108,179.554,197.433,181.724z"/>
				</g>
				<path style="fill-rule:evenodd;clip-rule:evenodd;fill:#ED8470;" d="M123.303,276.771c8.817-36.041,36.983-32.608,26.203-98.127
					c3.958-0.884,8.033-1.37,12.186-1.393c1.445,0.013,2.889,0.061,4.326,0.145c2.271,0.163,4.506,0.462,6.7,0.888
					c-15.319,61.592,22.076,63.303,26.625,98.417c-10.579,4.403-23.674,6.498-37.931,6.498
					C147.229,283.199,134.042,281.126,123.303,276.771z"/>
				<g>
					<path style="fill-rule:evenodd;clip-rule:evenodd;fill:#333333;" d="M160.915,228.91c22.265,0,7.244,16.675,0,16.675
						C153.671,245.585,138.65,228.91,160.915,228.91z"/>
					<path style="fill-rule:evenodd;clip-rule:evenodd;fill:#666666;" d="M160.916,233.177c3.198,0,5.806-0.688,5.806-1.533
						c0-0.844-2.608-1.533-5.806-1.533c-3.198,0-5.806,0.689-5.806,1.533C155.11,232.488,157.718,233.177,160.916,233.177z"/>
				</g>
				<g>
					
						<path style="fill-rule:evenodd;clip-rule:evenodd;fill:none;stroke:#333333;stroke-width:3.1198;stroke-linecap:round;stroke-linejoin:round;stroke-miterlimit:22.9256;" d="
						M130.857,224.153c3.437-5.986,13.35-6.085,16.244,0"/>
					
						<path style="fill-rule:evenodd;clip-rule:evenodd;fill:none;stroke:#333333;stroke-width:3.1198;stroke-linecap:round;stroke-linejoin:round;stroke-miterlimit:22.9256;" d="
						M191.788,224.153c-3.437-5.986-13.35-6.085-16.244,0"/>
				</g>
				<path style="fill-rule:evenodd;clip-rule:evenodd;fill:#A64733;" d="M120.068,429.798c0.755,1.234,2.084,2.153,4.063,2.484
					c0.733,4.406,9.66,7.478,13.984,4.419c3.613,2.396,9.643,0.01,13.2-4.112c-1.019,1.033-2.598,2.09-4.98,2.808
					c-3.11,0.937-7.46,1.372-8.207-3.132c-2.06,7.022-12.791,3.681-11.32-2.77C125.449,432.618,120.916,430.701,120.068,429.798z"/>
				<path style="fill-rule:evenodd;clip-rule:evenodd;fill:#A64733;" d="M201.407,429.798c-0.755,1.234-2.084,2.153-4.062,2.484
					c-0.733,4.406-9.66,7.478-13.984,4.419c-3.613,2.396-9.643,0.01-13.2-4.112c1.019,1.033,2.598,2.09,4.98,2.808
					c3.11,0.937,7.461,1.372,8.207-3.132c2.06,7.022,12.791,3.681,11.32-2.77C196.025,432.618,200.559,430.701,201.407,429.798z"/>
				
					<line style="fill-rule:evenodd;clip-rule:evenodd;fill:none;stroke:#333333;stroke-width:2.3998;stroke-linecap:round;stroke-linejoin:round;stroke-miterlimit:22.9256;" x1="160.915" y1="243.249" x2="160.915" y2="251.766"/>
				
					<path style="fill-rule:evenodd;clip-rule:evenodd;fill:none;stroke:#333333;stroke-width:3.1198;stroke-linecap:round;stroke-linejoin:round;stroke-miterlimit:22.9256;" d="
					M150.311,245.061c2.958,9.015,18.252,8.867,21.21,0"/>
			</g>
		</g>
	</g>
</g>
</svg>
